<?xml version="1.0" encoding="UTF-8" standalone="no"?>
<svg
   id="currentIllo"
   data-name="Layer 1"
   width="900"
   height="700"
   viewBox="0 0 899.99997 700"
   class="injected-svg DownloadModal__ImageFile-sc-p17csy-5 iIfSkb grid_media"
   version="1.1"
   sodipodi:docname="undraw_content_creator_re_pt5b.svg"
   inkscape:version="1.1.1 (3bf5ae0d25, 2021-09-20)"
   xmlns:inkscape="http://www.inkscape.org/namespaces/inkscape"
   xmlns:sodipodi="http://sodipodi.sourceforge.net/DTD/sodipodi-0.dtd"
   xmlns="http://www.w3.org/2000/svg"
   xmlns:svg="http://www.w3.org/2000/svg">
  <defs
     id="defs975" />
  <sodipodi:namedview
     id="namedview973"
     pagecolor="#ffffff"
     bordercolor="#111111"
     borderopacity="1"
     inkscape:pageshadow="0"
     inkscape:pageopacity="0"
     inkscape:pagecheckerboard="1"
     showgrid="false"
     width="900px"
     inkscape:zoom="0.51782276"
     inkscape:cx="446.09858"
     inkscape:cy="284.8465"
     inkscape:window-width="1920"
     inkscape:window-height="1027"
     inkscape:window-x="1272"
     inkscape:window-y="42"
     inkscape:window-maximized="1"
     inkscape:current-layer="currentIllo" />
  <path
     d="m 824.79529,523.55814 h -379 a 5.00573,5.00573 0 0 1 -5,-5 v -417 a 5.00573,5.00573 0 0 1 5,-5.000005 h 379 a 5.00573,5.00573 0 0 1 5,5.000005 v 417 a 5.00573,5.00573 0 0 1 -5,5 z m -379,-425.000005 a 3.00328,3.00328 0 0 0 -3,3.000005 v 417 a 3.00328,3.00328 0 0 0 3,3 h 379 a 3.00328,3.00328 0 0 0 3,-3 v -417 a 3.00328,3.00328 0 0 0 -3,-3.000005 z"
     fill="#3f3d56"
     id="path912" />
  <path
     d="m 609.29529,255.55814 h -94 a 5.00573,5.00573 0 0 1 -5,-5 v -94 a 5.00573,5.00573 0 0 1 5,-5 h 94 a 5.00573,5.00573 0 0 1 5,5 v 94 a 5.00573,5.00573 0 0 1 -5,5 z m -94,-102 a 3.00328,3.00328 0 0 0 -3,3 v 94 a 3.00328,3.00328 0 0 0 3,3 h 94 a 3.00328,3.00328 0 0 0 3,-3 v -94 a 3.00328,3.00328 0 0 0 -3,-3 z"
     fill="#f2f2f2"
     id="path914" />
  <path
     d="m 582.29529,267.05814 h -94 a 4.50508,4.50508 0 0 1 -4.5,-4.5 v -94 a 4.50508,4.50508 0 0 1 4.5,-4.5 h 94 a 4.50507,4.50507 0 0 1 4.5,4.5 v 94 a 4.50507,4.50507 0 0 1 -4.5,4.5 z"
     fill="#8d99ae"
     id="path916" />
  <path
     d="m 782.29529,313.05814 h -294 a 4.5,4.5 0 0 1 0,-9 h 294 a 4.5,4.5 0 1 1 0,9 z"
     fill="#cccccc"
     id="path918" />
  <path
     d="m 711.29529,344.05814 h -223 a 4.5,4.5 0 0 1 0,-9 h 223 a 4.5,4.5 0 1 1 0,9 z"
     fill="#cccccc"
     id="path920" />
  <path
     d="m 781.29529,199.05814 h -130 a 4.5,4.5 0 0 1 0,-9 h 130 a 4.5,4.5 0 1 1 0,9 z"
     fill="#cccccc"
     id="path922" />
  <path
     d="m 748.85169,230.05814 h -97.5564 a 4.5,4.5 0 0 1 0,-9 h 97.5564 a 4.5,4.5 0 0 1 0,9 z"
     fill="#cccccc"
     id="path924" />
  <path
     d="m 782.29529,375.05814 h -294 a 4.5,4.5 0 0 1 0,-9 h 294 a 4.5,4.5 0 1 1 0,9 z"
     fill="#cccccc"
     id="path926" />
  <path
     d="m 711.29529,406.05814 h -223 a 4.5,4.5 0 0 1 0,-9 h 223 a 4.5,4.5 0 1 1 0,9 z"
     fill="#cccccc"
     id="path928" />
  <path
     d="m 782.29529,437.05814 h -294 a 4.5,4.5 0 0 1 0,-9 h 294 a 4.5,4.5 0 1 1 0,9 z"
     fill="#cccccc"
     id="path930" />
  <path
     d="m 782.29529,468.05814 h -294 a 4.5,4.5 0 0 1 0,-9 h 294 a 4.5,4.5 0 1 1 0,9 z"
     fill="#cccccc"
     id="path932" />
  <path
     d="m 545.22443,484.86914 h -215 a 5.00573,5.00573 0 0 1 -5,-5 v -133 a 5.00573,5.00573 0 0 1 5,-5 h 215 a 5.00573,5.00573 0 0 1 5,5 v 133 a 5.00573,5.00573 0 0 1 -5,5 z"
     fill="#ffffff"
     id="path934" />
  <path
     d="m 545.22443,484.86914 h -215 a 5.00573,5.00573 0 0 1 -5,-5 v -133 a 5.00573,5.00573 0 0 1 5,-5 h 215 a 5.00573,5.00573 0 0 1 5,5 v 133 a 5.00573,5.00573 0 0 1 -5,5 z m -215,-141 a 3.00328,3.00328 0 0 0 -3,3 v 133 a 3.00328,3.00328 0 0 0 3,3 h 215 a 3.00328,3.00328 0 0 0 3,-3 v -133 a 3.00328,3.00328 0 0 0 -3,-3 z"
     fill="#3f3d56"
     id="path936" />
  <path
     d="m 502.72443,402.36914 h -130 a 4.5,4.5 0 0 1 0,-9 h 130 a 4.5,4.5 0 0 1 0,9 z"
     fill="#cccccc"
     id="path938" />
  <path
     d="m 502.72443,433.36914 h -130 a 4.5,4.5 0 0 1 0,-9 h 130 a 4.5,4.5 0 0 1 0,9 z"
     fill="#cccccc"
     id="path940" />
  <polygon
     points="230.333,457.604 230.335,504.891 242.595,504.891 248.427,457.603 "
     fill="#a0616a"
     id="polygon942"
     transform="translate(63.728369,96.558135)" />
  <path
     d="m 290.93616,597.44666 24.144,-10e-4 h 0.001 a 15.3873,15.3873 0 0 1 15.38647,15.38623 v 0.5 l -39.53076,10e-4 z"
     fill="#2f2e41"
     id="path944" />
  <polygon
     points="143.943,452.828 134.876,499.584 146.998,501.416 159.834,455.532 "
     fill="#a0616a"
     id="polygon946"
     transform="translate(63.728369,96.558135)" />
  <path
     d="m 196.11033,591.71714 23.8729,3.60829 0.001,1.5e-4 a 15.3873,15.3873 0 0 1 12.91352,17.51344 l -0.0747,0.49438 -39.08679,-5.90794 z"
     fill="#2f2e41"
     id="path948" />
  <path
     d="m 236.40457,367.1013 13.61234,3.56656 -0.90556,22.06943 -0.11221,40.18164 a 8.05269,8.05269 0 1 1 -10.65739,1.33914 l -4.183,-40.32883 z"
     fill="#a0616a"
     id="path950" />
  <path
     d="m 234.03504,341.82279 a 11.112,11.112 0 0 1 6.86914,-9.88184 10.38874,10.38874 0 0 1 11.24536,1.8086 9.90512,9.90512 0 0 1 3.30176,7.66015 c 0.0359,12.92871 -2.88281,31.77344 -2.91235,31.96192 l -0.0466,0.2998 -19.89673,6.7002 z"
     fill="#8d99ae"
     id="path952" />
  <path
     d="m 269.61135,378.52271 30.43253,-7.87755 14.06747,47.37755 0.5,176.5 -23.27183,-0.14567 -9.72817,-142.85433 -62,132 -25,-3 54.5,-141.5 c 0,0 -3,-25 6.5,-37.5 l -2,-13 z"
     fill="#2f2e41"
     id="path954" />
  <path
     d="m 249.09119,390.31014 a 4.66294,4.66294 0 0 1 -0.99487,-3.751 l -13.88135,-41.64453 a 10.59476,10.59476 0 0 1 2.92212,-11.18262 l 6.02612,-5.47754 4.08374,-16.335 23.47144,5.7373 -1.93384,7.73535 10.62256,-1.93066 22.374,49.832 -46.76757,18.69336 -2.30323,0.0361 a 4.66233,4.66233 0 0 1 -3.61912,-1.71279 z"
     fill="#8d99ae"
     id="path956" />
  <path
     d="m 281.66897,355.14868 13.41089,-4.262 11.03149,19.136 21.38355,34.01946 a 8.0527,8.0527 0 1 1 -8.29126,6.82849 l -25.09229,-31.8479 z"
     fill="#a0616a"
     id="path958" />
  <path
     d="m 266.15418,335.05033 a 11.11077,11.11077 0 0 1 0.52344,-12.02246 10.39434,10.39434 0 0 1 10.4707,-4.48243 9.90544,9.90544 0 0 1 6.885,4.709 c 6.94092,10.90723 14.54736,28.39453 14.62329,28.56934 l 0.12061,0.27832 -13.23412,16.29784 z"
     fill="#8d99ae"
     id="path960" />
  <circle
     cx="264.61276"
     cy="290.23099"
     r="18.64889"
     fill="#a0616a"
     id="circle962" />
  <circle
     cx="231.6561"
     cy="264.40103"
     r="17.96364"
     fill="#2f2e41"
     id="circle964" />
  <path
     d="m 216.16152,279.27609 a 17.96458,17.96458 0 0 0 27.74061,-9.43241 17.96463,17.96463 0 1 1 -35.04222,-7.36674 17.958,17.958 0 0 0 7.30161,16.79915 z"
     fill="#2f2e41"
     id="path966" />
  <path
     d="m 287.05395,279.29606 c -3.136,-5.61432 -4.33594,-7.95958 -8.37942,-11.37357 -3.57566,-3.01934 -7.97385,-3.906 -11.52134,-1.04515 a 21.24492,21.24492 0 1 0 12.81864,19.50087 21.42139,21.42139 0 0 0 -0.14474,-2.4022 c 3.08359,-0.43306 4.14324,-4.24687 7.22686,-4.67995 z"
     fill="#2f2e41"
     id="path968" />
  <path
     d="M 445.72837,613.55814 H 64.728369 a 1,1 0 0 1 0,-2 H 445.72837 a 1,1 0 0 1 0,2 z"
     fill="#cccccc"
     id="path970" />
</svg>
