<?xml version="1.0" encoding="UTF-8" standalone="no"?>
<svg
   data-name="Layer 1"
   width="900"
   height="700"
   viewBox="0 0 899.99999 699.99998"
   version="1.1"
   id="svg153"
   sodipodi:docname="undraw_city_driver_re_0x5e.svg"
   inkscape:version="1.1.1 (3bf5ae0d25, 2021-09-20)"
   xmlns:inkscape="http://www.inkscape.org/namespaces/inkscape"
   xmlns:sodipodi="http://sodipodi.sourceforge.net/DTD/sodipodi-0.dtd"
   xmlns="http://www.w3.org/2000/svg"
   xmlns:svg="http://www.w3.org/2000/svg">
  <defs
     id="defs157" />
  <sodipodi:namedview
     id="namedview155"
     pagecolor="#ffffff"
     bordercolor="#111111"
     borderopacity="1"
     inkscape:pageshadow="0"
     inkscape:pageopacity="0"
     inkscape:pagecheckerboard="1"
     showgrid="false"
     inkscape:zoom="0.52073407"
     inkscape:cx="435.92308"
     inkscape:cy="573.22925"
     inkscape:window-width="1920"
     inkscape:window-height="1027"
     inkscape:window-x="1272"
     inkscape:window-y="42"
     inkscape:window-maximized="1"
     inkscape:current-layer="svg153" />
  <path
     d="m 879.9785,492.07018 c -15.48196,33.34801 -42.28743,58.86306 -72.95494,78.27817 a 322.49939,336.70241 0 0 1 -39.14809,20.92508 q -13.23803,5.98411 -26.83798,10.92154 c -44.97421,16.39517 -92.56169,24.40831 -140.23143,24.43404 q -11.68523,0.0128 -23.37043,-0.62628 -3.3524,-0.18018 -6.70519,-0.41182 -17.66354,-1.22256 -35.21193,-3.92077 c -0.23031,-0.0343 -0.46825,-0.0686 -0.69857,-0.11154 a 443.55778,463.09226 0 0 1 -72.12472,-17.64775 q -6.8408,-2.31644 -13.59974,-4.86451 c -1.21619,-0.44613 -2.43237,-0.918 -3.6405,-1.38132 q -7.6178,-2.94701 -15.12005,-6.18573 -6.31117,-2.71537 -12.54808,-5.63665 -6.13845,-2.89553 -12.19459,-5.97982 -9.91032,-5.07032 -19.60717,-10.62979 -7.4818,-4.32407 -14.76657,-8.97402 a 408.09629,426.06904 0 0 1 -34.91622,-24.9488 q -5.94101,-4.73582 -11.71791,-9.71186 c -2.67068,-2.29926 -5.31688,-4.65001 -8.00401,-6.93208 -5.66998,-4.81303 -11.50446,-9.38583 -18.01263,-12.809 a 64.610925,67.456419 0 0 0 -6.03149,-2.77977 75.522844,78.848905 0 0 0 -23.95425,-4.8645 c -13.96127,-0.57482 -28.37475,2.13626 -41.87622,6.1514 -6.41749,1.89605 -12.76155,4.07521 -19.10561,6.30584 q -3.90731,1.37699 -7.80659,2.76256 c -5.37423,1.9132 -10.74812,3.78351 -16.17173,5.49079 -1.80801,0.56625 -3.6156,1.12391 -5.43203,1.64725 a 159.60572,166.63483 0 0 1 -22.11294,4.90739 117.81687,123.00557 0 0 1 -49.70766,-4.52133 l -1.37226,-0.44612 c -2.30073,-0.75498 -4.57699,-1.5786 -6.845203,-2.47939 L 96.7795,517.4823 q -3.278349,-1.3255 -6.434331,-2.83976 l -1.372266,-0.65204 c -2.02149,-0.98662 -4.001991,-2.01615 -5.94923,-3.10573 -0.164515,-0.0858 -0.320596,-0.17158 -0.485102,-0.26596 -0.755951,-0.41181 -1.503459,-0.85793 -2.243369,-1.27832 a 135.27463,141.23219 0 0 1 -32.179333,-26.1585 c -0.271243,-0.28312 -0.526032,-0.57482 -0.82175,-0.85794 -1.306852,-1.47565 -2.588825,-2.97705 -3.829475,-4.51275 -0.460224,-0.56624 -0.920457,-1.13248 -1.372247,-1.71587 q -2.20644,-2.81832 -4.26482,-5.75676 c -0.205435,-0.28312 -0.402849,-0.57482 -0.59987,-0.85794 A 119.17833,124.427 0 0 1 23.364739,443.31366 c -0.115161,-0.28313 -0.221879,-0.57482 -0.320596,-0.85794 q -1.63947,-4.41409 -2.999299,-8.9826 c -0.369942,-1.26975 -0.723038,-2.57381 -1.035606,-3.84356 -0.106737,-0.37749 -0.205437,-0.76356 -0.295722,-1.14105 -4.494726,-18.6344 -4.979787,-38.01525 -4.979787,-57.28446 v -6.73481 c 0.131603,-31.16885 0.591831,-62.86962 4.996279,-93.6095 a 4.959793,5.1782245 0 0 1 0.09028,-0.63487 282.70082,295.15109 0 0 1 6.007016,-30.7313 218.25489,227.86693 0 0 1 10.115707,-31.14311 C 45.075225,183.47028 59.809296,160.82933 76.169999,139.84418 117.33959,87.07249 171.3859,42.708565 234.64396,26.158961 302.80803,8.2881336 378.56483,25.412556 433.54764,71.114858 449.76109,84.584471 464.38,100.4563 482.35129,111.14619 q 0.91243,0.55337 1.84893,1.081 3.56244,2.02037 7.28057,3.67197 a 75.129852,78.438604 0 0 0 10.11575,3.64623 c 10.92102,3.06284 22.33523,3.33738 33.22337,-0.46328 0.88755,-0.31744 1.77511,-0.65203 2.65424,-1.02095 1.86537,-0.77214 3.64851,-1.49281 5.36583,-2.162 11.71832,-4.55564 20.74109,-6.76911 34.98203,-5.97123 a 338.02208,352.90872 0 0 1 98.90534,21.61142 c 1.28197,0.48903 2.56394,0.99521 3.83749,1.5014 82.75813,33.07351 153.91345,98.74854 190.87563,183.1438 q 1.47873,3.34596 2.85121,6.74338 c 22.04756,53.72396 30.00222,116.75662 5.68682,169.14225 z"
     fill="#f2f2f2"
     style="isolation:isolate;stroke-width:0.839647"
     id="path2" />
  <polygon
     points="63.608,512.617 63.608,513.017 63.458,513.197 "
     fill="#cacaca"
     id="polygon4"
     transform="matrix(0.82174688,0,0,0.85793699,9.6018296,19.203666)" />
  <path
     d="m 207.60018,510.67024 q -3.90731,1.37699 -7.80659,2.76256 v -2.76256 z"
     fill="#ffffff"
     id="path6"
     style="stroke-width:0.839647" />
  <rect
     x="482.34995"
     y="69.622574"
     width="19.246866"
     height="50.236275"
     fill="#e4e4e4"
     id="rect8"
     style="stroke-width:0.839647" />
  <path
     d="m 534.81994,115.89911 v 505.65948 a 443.55778,463.09226 0 0 1 -72.12472,-17.64776 q -6.8408,-2.31643 -13.59974,-4.8645 c -1.21619,-0.44614 -2.43237,-0.918 -3.6405,-1.38133 q -7.6178,-2.94701 -15.12005,-6.18572 -6.31117,-2.71538 -12.54808,-5.63665 -6.13845,-2.89554 -12.19459,-5.97982 -9.91032,-5.07033 -19.60717,-10.6298 -7.4818,-4.32407 -14.76657,-8.97402 V 115.89911 Z"
     fill="#e4e4e4"
     id="path10"
     style="stroke-width:0.839647" />
  <path
     d="M 600.80606,115.89911 V 626.629 q -11.68523,0.0128 -23.37043,-0.62629 -3.3524,-0.18017 -6.70519,-0.41182 -17.66354,-1.22255 -35.21193,-3.92077 c -0.23031,-0.0343 -0.46825,-0.0686 -0.69857,-0.11153 V 115.89911 Z"
     fill="#cacaca"
     id="path12"
     style="stroke-width:0.839647" />
  <rect
     x="400.77719"
     y="166.13387"
     width="24.74597"
     height="25.835793"
     fill="#ffffff"
     id="rect14"
     style="stroke-width:0.839647" />
  <rect
     x="440.64569"
     y="166.13387"
     width="24.74597"
     height="25.835793"
     fill="#ffffff"
     id="rect16"
     style="stroke-width:0.839647" />
  <rect
     x="480.51419"
     y="166.13387"
     width="24.74597"
     height="25.835793"
     fill="#ffffff"
     id="rect18"
     style="stroke-width:0.839647" />
  <rect
     x="401.46457"
     y="224.98209"
     width="24.74597"
     height="25.835793"
     fill="#ffffff"
     id="rect20"
     style="stroke-width:0.839647" />
  <rect
     x="441.3331"
     y="224.98209"
     width="24.74597"
     height="25.835793"
     fill="#ffffff"
     id="rect22"
     style="stroke-width:0.839647" />
  <rect
     x="481.20166"
     y="224.98209"
     width="24.74597"
     height="25.835793"
     fill="#ffffff"
     id="rect24"
     style="stroke-width:0.839647" />
  <rect
     x="402.15198"
     y="283.83026"
     width="24.74597"
     height="25.835793"
     fill="#ffffff"
     id="rect26"
     style="stroke-width:0.839647" />
  <rect
     x="442.02051"
     y="283.83026"
     width="24.74597"
     height="25.835793"
     fill="#ffffff"
     id="rect28"
     style="stroke-width:0.839647" />
  <rect
     x="481.88901"
     y="283.83026"
     width="24.74597"
     height="25.835793"
     fill="#ffffff"
     id="rect30"
     style="stroke-width:0.839647" />
  <rect
     x="402.83936"
     y="342.67844"
     width="24.74597"
     height="25.835793"
     fill="#ffffff"
     id="rect32"
     style="stroke-width:0.839647" />
  <rect
     x="442.70786"
     y="342.67844"
     width="24.74597"
     height="25.835793"
     fill="#ffffff"
     id="rect34"
     style="stroke-width:0.839647" />
  <rect
     x="482.57642"
     y="342.67844"
     width="24.74597"
     height="25.835793"
     fill="#ffffff"
     id="rect36"
     style="stroke-width:0.839647" />
  <rect
     x="403.52673"
     y="401.52667"
     width="24.74597"
     height="25.835793"
     fill="#ffffff"
     id="rect38"
     style="stroke-width:0.839647" />
  <rect
     x="443.39526"
     y="401.52667"
     width="24.74597"
     height="25.835793"
     fill="#ffffff"
     id="rect40"
     style="stroke-width:0.839647" />
  <rect
     x="483.26376"
     y="401.52667"
     width="24.74597"
     height="25.835793"
     fill="#ffffff"
     id="rect42"
     style="stroke-width:0.839647" />
  <rect
     x="404.21411"
     y="460.37488"
     width="24.74597"
     height="25.835793"
     fill="#ffffff"
     id="rect44"
     style="stroke-width:0.839647" />
  <rect
     x="444.08261"
     y="460.37488"
     width="24.74597"
     height="25.835793"
     fill="#ffffff"
     id="rect46"
     style="stroke-width:0.839647" />
  <rect
     x="483.95117"
     y="460.37488"
     width="24.74597"
     height="25.835793"
     fill="#ffffff"
     id="rect48"
     style="stroke-width:0.839647" />
  <rect
     x="404.90152"
     y="519.22308"
     width="24.74597"
     height="25.835793"
     fill="#ffffff"
     id="rect50"
     style="stroke-width:0.839647" />
  <rect
     x="444.77002"
     y="519.22308"
     width="24.74597"
     height="25.835793"
     fill="#ffffff"
     id="rect52"
     style="stroke-width:0.839647" />
  <rect
     x="484.63852"
     y="519.22308"
     width="24.74597"
     height="25.835793"
     fill="#ffffff"
     id="rect54"
     style="stroke-width:0.839647" />
  <path
     d="m 430.33491,578.06977 v 13.40956 q -6.31116,-2.71537 -12.54808,-5.63665 -6.13844,-2.89553 -12.19459,-5.97982 v -1.79309 z"
     fill="#ffffff"
     id="path56"
     style="stroke-width:0.839647" />
  <path
     d="m 470.20608,578.06977 v 25.84107 h -7.51088 q -6.8408,-2.31643 -13.59974,-4.8645 c -1.21619,-0.44614 -2.43237,-0.918 -3.64049,-1.38133 v -19.59528 z"
     fill="#ffffff"
     id="path58"
     style="stroke-width:0.839647" />
  <rect
     x="485.32587"
     y="578.07135"
     width="24.74597"
     height="25.835793"
     fill="#ffffff"
     id="rect60"
     style="stroke-width:0.839647" />
  <rect
     x="706.66492"
     y="325.45462"
     width="19.246866"
     height="29.773912"
     fill="#e4e4e4"
     id="rect62"
     style="stroke-width:0.839647" />
  <path
     d="m 741.03749,352.67254 v 249.52239 c -44.97421,16.39518 -92.56169,24.40831 -140.23143,24.43405 q -11.68523,0.0128 -23.37043,-0.62629 V 352.67254 Z"
     fill="#e4e4e4"
     id="path64"
     style="stroke-width:0.839647" />
  <path
     d="m 807.02356,352.67254 v 217.67578 a 322.49939,336.70241 0 0 1 -39.14809,20.92508 q -13.23803,5.98411 -26.83798,10.92153 V 352.67254 Z"
     fill="#cacaca"
     id="path66"
     style="stroke-width:0.839647" />
  <rect
     x="609.74316"
     y="401.52667"
     width="24.74597"
     height="25.835793"
     fill="#ffffff"
     id="rect68"
     style="stroke-width:0.839647" />
  <rect
     x="649.61176"
     y="401.52667"
     width="24.74597"
     height="25.835793"
     fill="#ffffff"
     id="rect70"
     style="stroke-width:0.839647" />
  <rect
     x="689.48022"
     y="401.52667"
     width="24.74597"
     height="25.835793"
     fill="#ffffff"
     id="rect72"
     style="stroke-width:0.839647" />
  <rect
     x="610.43066"
     y="460.37488"
     width="24.74597"
     height="25.835793"
     fill="#ffffff"
     id="rect74"
     style="stroke-width:0.839647" />
  <rect
     x="650.29907"
     y="460.37488"
     width="24.74597"
     height="25.835793"
     fill="#ffffff"
     id="rect76"
     style="stroke-width:0.839647" />
  <rect
     x="690.16766"
     y="460.37488"
     width="24.74597"
     height="25.835793"
     fill="#ffffff"
     id="rect78"
     style="stroke-width:0.839647" />
  <rect
     x="611.11798"
     y="519.22308"
     width="24.74597"
     height="25.835793"
     fill="#ffffff"
     id="rect80"
     style="stroke-width:0.839647" />
  <rect
     x="650.98651"
     y="519.22308"
     width="24.74597"
     height="25.835793"
     fill="#ffffff"
     id="rect82"
     style="stroke-width:0.839647" />
  <rect
     x="690.85504"
     y="519.22308"
     width="24.74597"
     height="25.835793"
     fill="#ffffff"
     id="rect84"
     style="stroke-width:0.839647" />
  <rect
     x="611.80542"
     y="578.07135"
     width="24.74597"
     height="25.835793"
     fill="#ffffff"
     id="rect86"
     style="stroke-width:0.839647" />
  <rect
     x="651.67395"
     y="578.07135"
     width="24.74597"
     height="25.835793"
     fill="#ffffff"
     id="rect88"
     style="stroke-width:0.839647" />
  <rect
     x="691.54242"
     y="578.07135"
     width="24.74597"
     height="25.835793"
     fill="#ffffff"
     id="rect90"
     style="stroke-width:0.839647" />
  <path
     d="m 596.80097,634.49931 c 0,0 8.80292,32.68654 45.67078,31.20082 36.86785,-1.48573 52.80635,-31.79515 52.80635,-31.79515 z"
     fill="#3f3d56"
     id="path92"
     style="stroke-width:0.839647" />
  <polygon
     points="408.852,568.136 271.586,572.058 155.211,550.584 96.331,568.594 83.513,592.07 85.594,636.133 392.751,727.401 526.504,743.85 500.355,584.338 "
     fill="#2f2e41"
     id="polygon94"
     transform="matrix(0.82174688,0,0,0.85793699,9.6018296,19.203666)" />
  <path
     d="m 123.89788,639.55084 h -6.51573 A 32.988256,34.441074 0 0 1 87.368377,619.66846 c -10.044944,-22.89451 -7.069391,-54.55324 -7.025345,-55.00477 2.276239,-27.36397 16.640596,-45.2168 35.746548,-44.40661 21.09216,0.88796 39.07786,77.05487 39.83317,80.29682 a 27.189467,28.386904 0 0 1 -0.94738,16.47154 32.878142,34.32611 0 0 1 -31.07749,22.5254 z"
     fill="#3f3d56"
     id="path96"
     style="stroke-width:0.839647" />
  <path
     d="m 389.60053,691.84937 a 22.950306,23.961047 0 0 1 -3.32547,-0.33545 51.523661,53.792786 0 0 1 -38.90749,-30.92281 c -2.64187,-5.99815 -5.1834,-12.13965 -7.55399,-18.25446 -9.51963,-24.55498 -1.53927,-67.48046 11.42772,-84.09536 11.44467,-14.66485 22.96356,-14.54877 40.40143,-14.37699 1.79025,0.018 3.64484,0.036 5.57002,0.0395 19.36111,0.0332 39.82956,74.39154 46.5557,98.82637 0.53533,1.94425 0.9781,3.55304 1.32054,4.75964 1.05384,3.71322 0.92858,8.15422 -0.37231,13.19882 -4.10413,15.91555 -17.62951,27.71916 -33.65628,29.37265 -11.5112,1.1863 -18.73142,1.78812 -21.45987,1.78812 z"
     fill="#3f3d56"
     id="path98"
     style="stroke-width:0.839647" />
  <path
     d="m 79.938335,564.96609 c 0,0 -7.400023,-34.46947 3.700002,-57.94437 l 11.187428,-28.22931 42.275585,41.00682 9.65344,64.16546 165.43018,26.16827 c 0,0 -10.24615,-105.19132 54.07704,-109.35143 64.32321,-4.16011 94.84438,109.35143 94.84438,109.35143 l 32.09436,24.36635 223.70816,-17.23474 c 0,0 3.94917,11.29172 -1.72542,17.23473 -5.67459,5.943 -277.19823,24.36636 -277.19823,24.36636 0,0 -13.66155,-140.84939 -67.7386,-127.77476 -54.07706,13.07462 -37.90321,112.17712 -37.90321,112.17712 L 139.13843,607.75575 c 0,0 -6.26155,-95.68249 -38.13854,-95.68249 -31.876999,0 -21.061555,52.89283 -21.061555,52.89283 z"
     fill="#3f3d56"
     id="path100"
     style="stroke-width:0.839647" />
  <polygon
     points="127.849,513.524 131.986,496.458 176.339,426.935 365.449,415.852 575.34,418.623 673.012,509.368 370.99,526.685 "
     fill="#3f3d56"
     id="polygon102"
     transform="matrix(0.82174688,0,0,0.85793699,9.6018296,19.203666)" />
  <path
     d="m 118.06119,445.13355 c 0,0 -31.007453,0.67513 -34.422853,61.88815 0,0 33.015463,-62.40163 61.477053,76.66485 l 169.91574,28.82361 c 0,0 -6.26155,-115.88874 58.06166,-106.97422 64.32321,8.91451 79.69246,115.29443 79.69246,115.29443 0,0 12.5231,26.14927 81.40017,21.98915 68.87708,-4.16011 171.90806,-10.69742 182.72347,-25.55495 0,0 25.0462,-88.55089 -52.93858,-145.6038 l -101.32326,-15.45183 -229.4005,4.75441 z"
     fill="#8d99ae"
     id="path104"
     style="stroke-width:0.839647" />
  <path
     d="m 195.77704,486.81545 h -19.35389 a 3.9846506,4.1601364 0 1 1 0,-8.32021 h 19.35389 a 3.9846506,4.1601364 0 0 1 0,8.32021 z"
     fill="#cacaca"
     id="path106"
     style="stroke-width:0.839647" />
  <ellipse
     cx="490.35458"
     cy="603.0014"
     fill="#ffffff"
     id="circle108"
     rx="12.523102"
     ry="13.074625"
     style="stroke-width:0.839647" />
  <path
     d="m 484.15029,538.8464 c -8.57391,0 -18.80995,-3.82116 -27.97214,-11.18957 -16.16711,-13.00324 -22.9594,-32.20254 -15.14106,-42.79839 7.81832,-10.59644 27.3323,-8.63771 43.49927,4.36439 7.81305,6.28428 13.69561,14.18199 16.56401,22.23813 2.88534,8.10432 2.38004,15.40598 -1.42308,20.55969 -3.38746,4.59132 -8.97166,6.82575 -15.527,6.82575 z"
     fill="#ffffff"
     id="path110"
     style="stroke-width:0.839647" />
  <path
     d="m 706.68942,522.24545 c -6.30796,0 -17.63813,-6.66848 -28.85628,-17.49011 -6.72405,-6.48686 -12.29464,-13.43968 -15.68557,-19.57827 -3.4443,-6.23549 -4.22893,-10.9261 -2.2091,-13.20813 2.01982,-2.28202 6.56062,-1.83571 12.78631,1.25651 6.12898,3.04464 13.2074,8.29353 19.93173,14.78035 14.1905,13.68924 22.05076,28.09117 17.89496,32.78697 a 5.0400859,5.2620535 0 0 1 -3.86205,1.45268 z"
     fill="#ffffff"
     id="path112"
     style="stroke-width:0.839647" />
  <path
     d="m 177.67001,445.12121 q -0.20304,0 -0.40816,-0.0197 l -41.16064,-3.99557 a 4.4278023,4.6228047 0 0 1 -3.35273,-7.03964 l 23.21065,-39.0692 a 4.4247783,4.6196474 0 0 1 3.56742,-2.18162 l 30.69976,-1.41408 a 4.4277695,4.6227704 0 0 1 4.43685,5.94388 l -12.74962,44.47856 a 4.4429882,4.6386594 0 0 1 -4.24353,3.29739 z"
     fill="#ffffff"
     id="path114"
     style="stroke-width:0.839647" />
  <path
     d="m 286.13511,454.27513 q -0.60891,0 -1.22671,-0.0626 l -71.15858,-7.31357 a 12.422964,12.970077 0 0 1 -10.769,-16.31832 l 10.23687,-39.2163 a 12.365433,12.910012 0 0 1 11.55265,-9.55206 l 57.42809,-2.0937 a 12.492352,13.042521 0 0 1 12.77405,11.46873 l 4.7387,42.68 a 12.397424,12.943412 0 0 1 -0.20416,4.26546 l -1.24533,5.94329 a 12.427665,12.974984 0 0 1 -12.12658,10.19909 z"
     fill="#ffffff"
     id="path116"
     style="stroke-width:0.839647" />
  <path
     d="m 341.67122,456.33895 a 9.2592713,9.6670538 0 0 1 -8.98445,-7.45719 l -12.55339,-56.64985 a 9.2205013,9.6265763 0 0 1 8.98319,-11.79636 h 148.86191 a 9.2697814,9.6780267 0 0 1 6.61871,2.92421 l 48.6225,52.33912 a 9.2207067,9.6267908 0 0 1 -6.41275,16.32675 l -184.93119,4.31101 c -0.0682,0.002 -0.13671,0.003 -0.20453,0.003 z"
     fill="#ffffff"
     id="path118"
     style="stroke-width:0.839647" />
  <path
     d="m 153.23703,387.56663 1.27069,-2.07954 c 0,0 7.40001,-21.39484 109.29254,-24.96064 101.89253,-3.5658 196.95426,-1.7829 218.58508,17.82904 l -175.89268,-0.59431 -148.56955,10.69743 z"
     fill="#8d99ae"
     id="path120"
     style="stroke-width:0.839647" />
  <path
     d="m 104.98453,540.00541 c -10.688935,0 -19.353877,18.62542 -19.353877,41.60108 0,22.97564 8.664942,41.60109 19.353877,41.60109 10.68895,0 19.35389,-18.62545 19.35389,-41.60109 0,-22.97566 -8.66497,-41.60108 -19.35389,-41.60108 z m 0.85386,8.91452 c 2.35781,0 4.26924,4.78937 4.26924,10.69742 0,5.90805 -1.91143,10.69742 -4.26924,10.69742 -2.35782,0 -4.26925,-4.78941 -4.26925,-10.69742 0,-5.90801 1.91143,-10.69742 4.26925,-10.69742 z m 2.56154,32.68654 c 0,1.96934 -1.27438,3.56581 -2.84615,3.56581 -1.57179,0 -2.84617,-1.59647 -2.84617,-3.56581 0,-1.96934 1.27438,-3.5658 2.84617,-3.5658 1.57177,0 2.84615,1.59648 2.84615,3.56582 z m -14.871148,2.2886 c -3.660271,0.29518 -6.722668,-0.75623 -6.840523,-2.34841 -0.117854,-1.59218 2.753615,-3.12222 6.413867,-3.41741 3.659986,-0.2952 6.722392,0.75622 6.840218,2.34843 0.117836,1.59222 -2.753615,3.12221 -6.413601,3.4174 z m 12.309638,30.39797 c -2.35781,0 -4.26925,-4.78941 -4.26925,-10.69742 0,-5.90802 1.91144,-10.69743 4.26925,-10.69743 2.3578,0 4.26924,4.78939 4.26924,10.69743 0,5.90802 -1.91146,10.69745 -4.26927,10.69745 z m 11.02886,-30.39797 c -3.66026,0.29518 -6.72265,-0.75623 -6.84051,-2.34841 -0.11784,-1.59218 2.75361,-3.12222 6.41387,-3.41741 3.65998,-0.2952 6.72238,0.75622 6.84023,2.34843 0.11783,1.59222 -2.75363,3.12221 -6.41362,3.4174 z"
     fill="#e4e4e4"
     id="path122"
     style="stroke-width:0.839647" />
  <path
     d="m 375.36972,567.93757 c -16.97634,0 -30.73852,23.81394 -30.73852,53.18996 0,29.37597 13.76218,53.18996 30.73852,53.18996 16.97634,0 30.73853,-23.81399 30.73853,-53.18996 0,-29.37602 -13.76218,-53.18996 -30.73853,-53.18996 z m -18.3637,57.18143 c -4.95771,0.3998 -9.10619,-1.02437 -9.26573,-3.18106 -0.15954,-2.15668 3.73003,-4.22917 8.68774,-4.62901 4.9577,-0.39985 9.10618,1.02437 9.26572,3.18102 0.15971,2.1567 -3.73003,4.22918 -8.68773,4.62905 z m 18.38178,40.58112 c -3.19374,0 -5.7828,-6.48747 -5.7828,-14.49016 0,-8.00268 2.58906,-14.49015 5.7828,-14.49015 3.19386,0 5.78292,6.48747 5.78292,14.49015 0,8.00269 -2.58906,14.49016 -5.78292,14.49016 z m -4.57192,-44.27544 c 0,-3.15095 2.03886,-5.70529 4.55384,-5.70529 2.51499,0 4.55387,2.55436 4.55387,5.70529 0,3.15091 -2.03888,5.70527 -4.55387,5.70527 -2.51498,0 -4.55384,-2.55432 -4.55384,-5.70527 z m 4.57192,-15.29517 c -3.19374,0 -5.7828,-6.48743 -5.7828,-14.49015 0,-8.00272 2.58906,-14.49012 5.7828,-14.49012 3.19386,0 5.78292,6.48743 5.78292,14.49012 0,8.00268 -2.58906,14.49015 -5.78292,14.49015 z m 19.49285,17.80087 c -4.95771,0.39981 -9.10618,-1.02438 -9.26572,-3.18105 -0.15955,-2.15669 3.73016,-4.22918 8.68788,-4.62903 4.95771,-0.39983 9.10603,1.02439 9.26557,3.18104 0.15955,2.15664 -3.73002,4.22919 -8.68773,4.62904 z"
     fill="#e4e4e4"
     id="path124"
     style="stroke-width:0.839647" />
  <path
     d="m 267.78488,461.55765 6.83079,16.64044 c 0,0 11.38463,4.75441 18.78465,-11.29172 l -14.995,-15.6554 z"
     fill="#cacaca"
     id="path126"
     style="stroke-width:0.839647" />
  <path
     d="m 258.39255,465.42062 c -12.24113,0 -22.20005,-6.9314 -22.20005,-15.45183 0,-8.52018 9.95892,-15.45185 22.20005,-15.45185 12.24113,0 22.20005,6.93169 22.20005,15.45185 0,8.52045 -9.95892,15.45183 -22.20005,15.45183 z"
     fill="#cacaca"
     id="path128"
     style="stroke-width:0.839647" />
  <path
     d="m 686.45745,519.79914 -127.2697,3.88418 c 0,0 -27.85249,8.15679 -30.69459,31.46188 0,0 3.9789,19.03247 14.21048,19.03247 10.23157,0 167.11495,-8.54521 167.11495,-8.54521 0,0 10.23156,-16.31356 1.70525,-27.96611 -8.52631,-11.65254 -25.06639,-17.86721 -25.06639,-17.86721 z"
     fill="#3f3d56"
     id="path130"
     style="stroke-width:0.839647" />
  <rect
     x="531.10229"
     y="550.97406"
     width="149.33914"
     height="1.7826353"
     transform="matrix(0.99940479,-0.03449746,0.03165143,0.99949897,0,0)"
     fill="#e4e4e4"
     id="rect132"
     style="stroke-width:0.839649" />
  <rect
     x="516.64062"
     y="565.4942"
     width="162.50562"
     height="1.7822561"
     transform="matrix(0.99888315,-0.04724886,0.04335442,0.99905976,0,0)"
     fill="#e4e4e4"
     id="rect134"
     style="stroke-width:0.83965" />
  <rect
     x="505.54233"
     y="579.3689"
     width="174.3495"
     height="1.7829417"
     transform="matrix(0.99843209,-0.05597651,0.05136637,0.99867988,0,0)"
     fill="#e4e4e4"
     id="rect136"
     style="stroke-width:0.839651" />
  <g
     id="fa69add6-ae6a-462f-9f4a-a8964149f7d7"
     data-name="Group 142"
     transform="matrix(0.82174688,0,0,0.85793699,9.6018296,19.203666)">
    <path
       id="f4e602e9-d2b5-4192-9853-189e5cc927ef-90"
       data-name="Path 2185"
       d="m 176.30958,619.619 a 9.42193,9.42193 0 0 1 3.0431,-14.123 l -1.96768,-21.44126 12.73787,-4.37341 2.35384,30.31841 a 9.47291,9.47291 0 0 1 -16.169,9.6202 z"
       transform="translate(-61.33735,-57.98653)"
       fill="#ffb8b8" />
    <path
       id="e2d38235-adb3-41cf-b4a9-63352e01515a-91"
       data-name="Path 2186"
       d="m 189.98407,496.558 c 0,0 8.74117,-18.34532 16.50892,-11.89662 7.76775,6.4487 -10.64934,60.69632 -10.64934,60.69632 l -2.80043,52.66236 -14.76222,-1.47574 -4.17419,-51.30272 z"
       transform="translate(-61.33735,-57.98653)"
       fill="#e6e6e6" />
    <path
       id="eea0d059-1974-4b26-aac7-8a2396c42a8e-92"
       data-name="Path 2187"
       d="M 72.73188,767.96592 83.69,776.83644 123.11971,738.78618 106.94691,725.698 Z"
       transform="translate(-61.33735,-57.98653)"
       fill="#ffb8b8" />
    <path
       id="a9703c69-ade6-4e5d-bca9-6a3d314fecef-93"
       data-name="Path 2188"
       d="m 72.83173,762.12528 21.581,17.46725 v 0 a 17.69478,17.69478 0 0 1 2.61914,24.88562 l -0.36161,0.44662 -35.33291,-28.59911 z"
       transform="translate(-61.33735,-57.98653)"
       fill="#2f2e41" />
    <path
       id="fb949616-149f-4f99-b6d4-35f2ecdeae65-94"
       data-name="Path 2189"
       d="m 225.02832,792.59 h 14.09843 l 6.70365,-54.38451 h -20.80491 z"
       transform="translate(-61.33735,-57.98653)"
       fill="#ffb8b8" />
    <path
       id="b920e865-38ed-4b06-94ca-a4364bcce1a4-95"
       data-name="Path 2190"
       d="m 221.43078,787.98718 h 27.7663 a 17.69479,17.69479 0 0 1 17.69479,17.69292 v 0.57593 H 221.4317 Z"
       transform="translate(-61.33735,-57.98653)"
       fill="#2f2e41" />
    <path
       id="e64f2ddc-8714-4699-9f4e-cfc1a70d06b3-96"
       data-name="Path 2191"
       d="m 249.76644,537.64662 c 0,0 26.45014,32.19638 20.70012,64.40038 -5.75002,32.204 -10.35006,56.35123 -10.35006,56.35123 l -9.19534,72.44847 c 0,0 3.45,19.73328 -1.15,24.81578 0,0 6.9,11.98441 -5.75,16.58444 -12.65,4.60003 -19.48024,-1.58626 -19.48024,-1.58626 0,0 -9.27463,-13.361 -3.52461,-16.80632 l 2.42276,-142.19279 -92.12227,120.33512 c 0,0 -1.6929,14.63472 -13.497,14.79337 l -14.10316,10.50677 -16.10007,-9.202 8.05,-10.35 c 0,0 -4.6,-11.5 5.75,-13.80009 L 161.217,645.74621 176.167,605.496 c 0,0 8.05,-31.05014 29.90014,-43.70021 V 548.3366 Z"
       transform="translate(-61.33735,-57.98653)"
       fill="#2f2e41" />
    <path
       id="bce97f6a-e88b-4fe5-bf4a-3ce22a01c084-97"
       data-name="Path 2192"
       d="m 204.34215,481.87135 v 0 a 21.95964,21.95964 0 0 1 28.94465,-4.0864 l 0.9555,0.63731 v 0 a 84.76523,84.76523 0 0 1 19.84278,40.85541 l 4.30639,23.54492 -54.05027,11.70777 -12.67085,-43.70022 a 24.68926,24.68926 0 0 1 12.67085,-28.95787 z"
       transform="translate(-61.33735,-57.98653)"
       fill="#e6e6e6" />
    <path
       id="b697c87b-19ec-4b06-9e7e-37987317631c-98"
       data-name="Path 2193"
       d="m 293.14279,624.625 a 10.78347,10.78347 0 0 1 -6.15132,-15.34853 l -15.59212,-19.08177 9.285,-12.30355 21.64051,27.25739 a 10.842,10.842 0 0 1 -9.18211,19.47647 z"
       transform="translate(-61.33735,-57.98653)"
       fill="#ffb8b8" />
    <path
       id="ff802918-ea99-4deb-b868-19882644d1b6-99"
       data-name="Path 2194"
       d="m 227.34133,499.12145 c 0,0 -3.45,-23.00013 8.05,-21.8501 11.5,1.15003 28.75015,64.40032 28.75015,64.40032 l 31.05014,51.75025 -14.95006,8.05 -36.80019,-46.00022 z"
       transform="translate(-61.33735,-57.98653)"
       fill="#e6e6e6" />
    <path
       id="b2ad01c3-7822-402f-83d4-81805929538c-100"
       data-name="Path 2195"
       d="M 248.40115,465.49653 H 193.639 a 4.25351,4.25351 0 0 1 -4.24879,-4.24879 v -23.60439 a 31.629875,31.629875 0 1 1 63.25975,0 v 0 23.60439 a 4.25351,4.25351 0 0 1 -4.24881,4.24879 z"
       transform="translate(-61.33735,-57.98653)"
       fill="#2f2e41" />
    <circle
       id="fe1c8106-5903-484b-8252-f0483d4636a1"
       data-name="Ellipse 430"
       cx="166.18271"
       cy="383.77057"
       r="23.18989"
       fill="#ffb8b8" />
    <path
       id="e2d5a9f4-7ffc-4596-9574-3d578968164c-101"
       data-name="Path 2196"
       d="m 260.13255,440.00379 h -29.18447 l -0.29929,-4.80775 -1.49651,4.80775 H 224.659 l -0.59293,-9.52863 -2.96565,9.52863 h -8.69493 v -0.47209 c 0,-13.79629 9.7826,-25.02065 21.81046,-25.02065 h 4.11472 c 12.02406,0 21.81046,11.22436 21.81046,25.02065 z"
       transform="translate(-61.33735,-57.98653)"
       fill="#2f2e41" />
    <path
       id="aa8282a4-b0b8-48ea-8496-97297549be2f-102"
       data-name="Path 2197"
       d="m 232.15663,469.903 a 7.01819,7.01819 0 0 1 -1.065,-0.0822 l -34.73715,-5.35064 v -36.18082 a 13.936,13.936 0 0 1 13.936,-13.936 h 24.3031 l -0.94418,0.964 c -13.17126,13.40731 -3.248,35.15449 3.839,46.92553 a 4.6378,4.6378 0 0 1 -0.47209,5.49606 6.30989,6.30989 0 0 1 -4.85777,2.1669 z"
       transform="translate(-61.33735,-57.98653)"
       fill="#2f2e41" />
  </g>
</svg>
