<?xml version="1.0" encoding="UTF-8" standalone="no"?>
<svg
   id="currentIllo"
   data-name="Layer 1"
   width="900"
   height="700"
   viewBox="0 0 900 700.00002"
   class="injected-svg DownloadModal__ImageFile-sc-p17csy-5 iIfSkb grid_media"
   version="1.1"
   sodipodi:docname="undraw_pay_online_b-1-hk.svg"
   inkscape:version="1.1.1 (3bf5ae0d25, 2021-09-20)"
   xmlns:inkscape="http://www.inkscape.org/namespaces/inkscape"
   xmlns:sodipodi="http://sodipodi.sourceforge.net/DTD/sodipodi-0.dtd"
   xmlns="http://www.w3.org/2000/svg"
   xmlns:svg="http://www.w3.org/2000/svg"
   xmlns:rdf="http://www.w3.org/1999/02/22-rdf-syntax-ns#"
   xmlns:cc="http://creativecommons.org/ns#"
   xmlns:dc="http://purl.org/dc/elements/1.1/">
  <defs
     id="defs3044" />
  <sodipodi:namedview
     id="namedview3042"
     pagecolor="#ffffff"
     bordercolor="#111111"
     borderopacity="1"
     inkscape:pageshadow="0"
     inkscape:pageopacity="0"
     inkscape:pagecheckerboard="1"
     showgrid="false"
     height="702.00732px"
     inkscape:zoom="0.59970884"
     inkscape:cx="73.368936"
     inkscape:cy="264.29492"
     inkscape:window-width="1920"
     inkscape:window-height="1027"
     inkscape:window-x="1272"
     inkscape:window-y="42"
     inkscape:window-maximized="1"
     inkscape:current-layer="currentIllo" />
  <title
     id="title2971">pay_online</title>
  <path
     d="m 965.71224,741.859 c -0.0657,-0.28941 -6.42292,-29.27871 6.56012,-53.35614 12.983,-24.07627 40.69654,-34.69446 40.97504,-34.79938 l 1.2665,-0.47505 0.2993,1.32022 c 0.066,0.2894 6.4229,29.27871 -6.5602,53.35613 -12.98242,24.07627 -40.69648,34.69446 -40.97496,34.79938 l -1.26717,0.47505 z m 47.06466,-85.409 c -5.5512,2.38791 -27.46039,12.83891 -38.42564,33.17362 -10.9664,20.337 -7.6578,44.38677 -6.60278,50.33406 5.54892,-2.38214 27.44944,-12.817 38.42562,-33.17362 10.9658,-20.33585 7.6584,-44.3833 6.6028,-50.33406 z"
     transform="translate(-171.00024,-88.99633)"
     fill="#3f3d56"
     id="path2973" />
  <path
     d="m 998.33141,699.45924 c -23.33121,14.03683 -32.3168,41.91784 -32.3168,41.91784 0,0 28.84178,5.12281 52.17299,-8.914 23.3312,-14.03681 32.3168,-41.91784 32.3168,-41.91784 0,0 -28.8418,-5.12283 -52.17299,8.914 z"
     transform="translate(-171.00024,-88.99633)"
     fill="#d0cde1"
     id="path2975" />
  <path
     d="m 491.41852,614.99633 c -2.77442,0 -5.57715,-0.0439 -8.32813,-0.12988 l 0.0625,-1.99805 c 3.9502,0.12305 7.98145,0.15723 11.9502,0.10254 l 0.0273,2 q -1.85302,0.0249 -3.71191,0.0254 z m 15.74511,-0.46387 -0.11719,-1.99609 c 3.95606,-0.2334 7.9629,-0.56152 11.90918,-0.97461 l 0.209,1.98828 c -3.97657,0.41696 -8.01368,0.74805 -12.00099,0.98242 z m -36.0957,-0.31152 c -3.98926,-0.30567 -8.02051,-0.70606 -11.98242,-1.19238 l 0.24414,-1.98438 c 3.93164,0.48145 7.93164,0.87988 11.89062,1.18262 z m 60.03906,-2.19922 -0.2998,-1.97656 c 3.93066,-0.59668 7.8916,-1.28906 11.76953,-2.05957 l 0.38965,1.96093 c -3.90821,0.77637 -7.89844,1.47461 -11.85937,2.0752 z m -83.93506,-0.73145 c -3.94091,-0.668 -7.91894,-1.43554 -11.82324,-2.2832 l 0.42432,-1.95508 c 3.87451,0.8418 7.82177,1.60352 11.73291,2.26563 z m 107.54834,-3.96191 -0.48047,-1.94141 c 3.8584,-0.9541 7.73829,-2.00878 11.53223,-3.13378 l 0.56836,1.918 c -3.82324,1.13375 -7.73239,2.19625 -11.62012,3.15719 z M 423.6441,606.18188 c -3.86572,-1.02832 -7.75586,-2.15918 -11.5625,-3.36328 l 0.60254,-1.90625 c 3.77783,1.19433 7.63818,2.3164 11.47363,3.33593 z m 154.1582,-5.70118 -0.6563,-1.8887 c 3.74414,-1.30176 7.50977,-2.709 11.19434,-4.18359 l 0.74219,1.85742 c -3.71187,1.48538 -7.50679,2.90335 -11.28023,4.21487 z m -177.1455,-1.5664 c -3.7544,-1.37988 -7.53223,-2.86914 -11.22754,-4.42578 l 0.77636,-1.84375 c 3.667,1.54492 7.41553,3.02246 11.14161,4.39258 z m 199.47461,-7.36817 -0.82813,-1.82031 c 3.5957,-1.63379 7.21,-3.37793 10.74219,-5.18359 l 0.91015,1.78125 c -3.55962,1.81933 -7.20117,3.57617 -10.82421,5.22265 z m 21.39843,-10.93847 -0.99023,-1.73633 c 3.44824,-1.96777 6.89062,-4.03613 10.22949,-6.14844 l 1.06836,1.68946 c -3.36426,2.1289 -6.83203,4.21386 -10.30762,6.19531 z m 20.32325,-12.85742 -1.14454,-1.63868 c 3.24707,-2.26855 6.48731,-4.64453 9.63086,-7.06054 l 1.21875,1.58593 c -3.16699,2.43457 -6.43261,4.82813 -9.70507,7.11329 z M 337.0274,564.93383 c -3.228,-2.34473 -6.45263,-4.80078 -9.585,-7.30176 l 1.24805,-1.5625 c 3.1084,2.48145 6.30859,4.91895 9.51172,7.24512 z m 323.90283,-11.8457 -1.28906,-1.5293 c 3.02637,-2.55371 6.03809,-5.21484 8.95313,-7.91016 l 1.35742,1.46875 c -2.93653,2.71582 -5.97172,5.39746 -9.02149,7.97071 z m -342.728,-3.18555 c -3.00635,-2.63281 -5.99317,-5.37109 -8.877,-8.13965 l 1.38477,-1.44336 c 2.8623,2.74805 5.82617,5.46582 8.80957,8.0791 z m 360.40088,-13.16113 -1.42383,-1.4043 c 2.79,-2.82715 5.5498,-5.75293 8.20117,-8.69531 l 1.48633,1.33789 c -2.6719,2.96582 -5.45217,5.91308 -8.26369,8.76172 z m -377.77295,-3.51172 c -2.7583,-2.90039 -5.48243,-5.89844 -8.09668,-8.91016 l 1.51074,-1.31055 c 2.59424,2.98926 5.29736,5.96387 8.03515,8.8418 z m 393.89304,-14.37988 -1.54492,-1.26954 c 2.52051,-3.06738 5.002,-6.23242 7.37793,-9.40918 l 1.60156,1.19727 c -2.39355,3.20117 -4.89453,6.3916 -7.43457,9.48145 z M 285.0523,515.053 c -2.47705,-3.12988 -4.916,-6.36133 -7.24951,-9.60449 l 1.623,-1.168 c 2.31592,3.21777 4.73633,6.4248 7.19482,9.53223 z m 424.09961,-15.4971 -1.65429,-1.12305 c 2.23047,-3.28418 4.415,-6.66406 6.49218,-10.04785 l 1.70508,1.04688 c -2.09472,3.40918 -4.29588,6.81543 -6.54297,10.12402 z M 271.001,495.5266 c -2.17919,-3.34082 -4.312,-6.77832 -6.33984,-10.21972 l 1.72266,-1.01563 c 2.01269,3.415 4.12939,6.82715 6.292,10.1416 z m 450.76612,-16.51074 -1.75,-0.9668 c 1.91992,-3.47461 3.78515,-7.043 5.5459,-10.60644 l 1.793,0.88672 c -1.77344,3.58984 -3.6543,7.18554 -5.58887,10.68652 z m 10.68066,-21.62109 -1.832,-0.80274 c 1.59375,-3.63965 3.124,-7.36718 4.54883,-11.07812 l 1.86719,0.71679 c -1.43555,3.74024 -2.97852,7.4961 -4.58399,11.16407 z m -483.90234,-4.31543 c -1.5332,-3.67969 -3.00147,-7.44434 -4.36377,-11.19043 l 1.87988,-0.6836 c 1.35156,3.71778 2.8086,7.45313 4.32959,11.1045 z m 492.55078,-18.21582 -1.89844,-0.62891 c 1.24805,-3.76074 2.42578,-7.60449 3.5,-11.42578 l 1.92578,0.541 c -1.08297,3.8506 -2.27047,7.72462 -3.52731,11.51369 z M 240.32916,430.4807 c -1.18994,-3.81152 -2.30811,-7.70507 -3.32324,-11.57421 l 1.93457,-0.50782 c 1.00732,3.83985 2.11719,7.7041 3.29785,11.48633 z m 507.28564,-18.79492 -1.94824,-0.45312 c 0.89551,-3.85449 1.71387,-7.791 2.4336,-11.69824 l 1.96679,0.36132 c -0.72461,3.93848 -1.5498,7.90426 -2.45215,11.79004 z m -513.394,-4.49414 c -0.834,-3.90625 -1.58887,-7.88574 -2.24316,-11.83008 l 1.97265,-0.32812 c 0.64991,3.915 1.39893,7.86426 2.22657,11.74023 z m 517.7524,-19.18359 -1.98242,-0.27149 c 0.53809,-3.917 0.99219,-7.91113 1.35059,-11.87207 l 1.99218,0.17969 c -0.36132,3.99219 -0.81933,8.0166 -1.36035,11.96387 z m -521.69385,-4.56641 c -0.47167,-3.959 -0.85888,-7.99121 -1.15136,-11.98437 l 1.99511,-0.14649 c 0.28956,3.96387 0.67432,7.96485 1.14258,11.89453 z m 523.86865,-19.40918 -1.99805,-0.0898 c 0.17773,-3.96289 0.26856,-7.98242 0.26856,-11.94629 h 2 c 10e-6,3.99414 -0.0908,8.04394 -0.27051,12.03613 z M 228.522,359.4309 c -0.0684,-2.45215 -0.103,-4.9541 -0.10351,-7.43457 q 0,-2.30859 0.0396,-4.6084 l 2,0.0352 q -0.0396,2.28222 -0.0396,4.57324 c 4.8e-4,2.46191 0.0352,4.94531 0.10253,7.37988 z m 2.41065,-23.94775 -1.9961,-0.125 c 0.24951,-3.9961 0.59424,-8.03223 1.02344,-11.99659 l 1.98828,0.21534 c -0.42627,3.93457 -0.76755,7.93994 -1.01559,11.90625 z M 751.1271,323.28156 c -0.39941,-3.94288 -0.94885,-5.86531 -1.52893,-9.79109 l 1.97852,-0.292 c 0.584,3.95556 1.085,6.9751 1.48828,10.94775 z m -517.6217,-11.55134 -1.97656,-0.30567 c 0.61279,-3.95654 1.3247,-7.94433 2.11621,-11.854 l 1.96,0.39648 c -0.78517,3.87989 -1.49171,7.83741 -2.09962,11.76319 z m 514.07422,-10.01563 c -0.7627,-3.90137 -1.62305,-7.82861 -2.5586,-11.67236 l 1.94336,-0.47266 c 0.94239,3.873 1.80957,7.83057 2.57813,11.76123 z m -509.33689,-13.40137 -1.93994,-0.48632 c 0.97119,-3.87354 2.04688,-7.7793 3.19727,-11.60938 l 1.915,0.5752 c -1.14106,3.80078 -2.20846,7.67675 -3.17233,11.5205 z m 503.68457,-9.81347 c -1.11523,-3.80811 -2.334,-7.63867 -3.62207,-11.38672 l 1.89063,-0.65039 c 1.29883,3.77685 2.52734,7.63769 3.65137,11.47461 z m -496.7998,-13.1001 -1.88672,-0.66309 c 1.3291,-3.78076 2.76416,-7.57959 4.26514,-11.291 l 1.85449,0.75 c -1.48975,3.68261 -2.91406,7.45263 -4.23291,11.20409 z M 734.1607,255.905 c -1.459,-3.68066 -3.02148,-7.37451 -4.64453,-10.97949 l 1.82422,-0.82129 c 1.63574,3.63281 3.21,7.355 4.67969,11.06348 z m -480.05664,-12.70262 -1.81738,-0.835 c 1.67041,-3.63769 3.44824,-7.28564 5.28418,-10.84228 l 1.77734,0.917 c -1.82226,3.52982 -3.58642,7.1499 -5.24414,10.76028 z m 470.26856,-9.03564 c -1.79,-3.53076 -3.68653,-7.06885 -5.63672,-10.51465 l 1.74023,-0.98535 c 1.96582,3.47266 3.876,7.0376 5.67969,10.5957 z m -459.29151,-12.22949 -1.7334,-0.99805 c 1.99512,-3.46435 4.09913,-6.93213 6.25391,-10.30615 l 1.68555,1.07617 c -2.13817,3.34863 -4.22657,6.79004 -6.20606,10.22803 z m 447.54151,-8.53516 c -2.11328,-3.36426 -4.32618,-6.71582 -6.57715,-9.96191 l 1.64258,-1.13965 c 2.26855,3.271 4.499,6.64795 6.62793,10.03808 z m -434.66846,-11.62353 -1.63477,-1.15235 c 2.30567,-3.27 4.71631,-6.52929 7.16651,-9.6875 l 1.58008,1.22559 c -2.43116,3.13476 -4.82422,6.36914 -7.11182,9.61426 z m 421.064,-7.99219 c -2.41015,-3.15674 -4.91992,-6.29492 -7.46191,-9.32715 l 1.5332,-1.28467 c 2.56055,3.05567 5.08985,6.21729 7.51856,9.39795 z m -406.41068,-10.89893 -1.52246,-1.29687 c 2.5874,-3.03906 5.28418,-6.064 8.01514,-8.99072 l 1.46191,1.36425 c -2.70996,2.90479 -5.38623,5.90723 -7.95459,8.92334 z m 391.06982,-7.4082 c -2.68652,-2.92432 -5.47363,-5.82275 -8.28222,-8.61377 l 1.41015,-1.41895 c 2.83008,2.813 5.6377,5.73292 8.34473,8.6792 z m -374.76513,-10.064 -1.39844,-1.42968 c 2.85986,-2.79785 5.81934,-5.564 8.79541,-8.22119 l 1.332,1.49218 c -2.95358,2.63675 -5.89059,5.38187 -8.72897,8.15872 z M 666.73,158.63549 c -2.94434,-2.67041 -5.98438,-5.3042 -9.03516,-7.82813 l 1.27539,-1.541 c 3.07325,2.543 6.13672,5.19678 9.10352,7.88769 z m -339.99951,-9.13184 -1.2627,-1.55078 c 3.09326,-2.519 6.29,-5.00342 9.502,-7.38427 l 1.19141,1.60644 c -3.188,2.36328 -6.36085,4.82861 -9.43067,7.32861 z m 19.18213,-14.21728 -1.11622,-1.65918 c 3.31055,-2.22754 6.71875,-4.40869 10.13038,-6.48438 l 1.03906,1.709 c -3.38522,2.05956 -6.76754,4.2246 -10.05318,6.43456 z m 20.38773,-12.40137 -0.96,-1.75488 c 3.50244,-1.91651 7.09375,-3.77588 10.67383,-5.52735 l 0.8789,1.79688 c -3.55269,1.73779 -7.11665,3.58301 -10.59273,5.48535 z m 241.37012,-4.63379 c -3.5586,-1.77295 -7.2041,-3.48584 -10.835,-5.09082 l 0.80859,-1.8291 c 3.65918,1.61719 7.333,3.34326 10.91895,5.12988 z M 387.72223,112.407 386.9273,110.572 c 3.66016,-1.58642 7.4043,-3.10791 11.12793,-4.52246 l 0.71,1.87012 c -3.69535,1.40334 -7.41068,2.9131 -11.043,4.48734 z M 585.774,108.5725 c -3.70312,-1.436 -7.49316,-2.80615 -11.26562,-4.07178 l 0.63672,-1.89648 c 3.80078,1.27588 7.62011,2.65625 11.35156,4.104 z m -175.74316,-4.63672 -0.623,-1.90039 c 3.80078,-1.24609 7.67871,-2.41943 11.52539,-3.48633 l 0.53467,1.92676 c -3.81745,1.05908 -7.6656,2.22318 -11.43708,3.45996 z m 153.06348,-2.97363 c -3.81446,-1.0874 -7.70508,-2.1001 -11.56348,-3.00977 l 0.459,-1.94628 c 3.88868,0.9165 7.8086,1.937 11.65332,3.03222 z m -130.04153,-3.41553 -0.44531,-1.9497 c 3.89648,-0.89014 7.86572,-1.70118 11.79687,-2.41016 l 0.35547,1.96777 c -3.90182,0.7041 -7.84033,1.50879 -11.70703,2.39209 z m 106.7876,-2.06689 c -3.89453,-0.731 -7.86133,-1.38135 -11.791,-1.93311 l 0.27735,-1.98047 c 3.96,0.55616 7.958,1.21143 11.88281,1.94776 z M 456.565,93.30346 456.30035,91.32104 c 3.959,-0.52832 7.98535,-0.97266 11.9668,-1.31934 l 0.17383,1.99219 C 464.4898,92.33861 460.49469,92.779 456.565,93.30346 Z M 516.18121,92.156 c -3.93945,-0.3711 -7.94922,-0.65723 -11.91894,-0.84912 l 0.0976,-1.99805 c 3.999,0.19385 8.03906,0.48193 12.00879,0.856 z m -35.81445,-0.9292 -0.084,-1.998 c 3.67578,-0.15332 7.42188,-0.23144 11.13575,-0.23242 l 0.90527,0.0015 -0.006,2 -0.89941,-0.0015 c -3.68551,9.3e-4 -7.40429,0.07856 -11.05175,0.23042 z"
     transform="translate(-171.00024,-88.99633)"
     fill="#3f3d56"
     id="path2977" />
  <rect
     x="169"
     y="652.29236"
     width="732.99951"
     height="2"
     fill="#3f3d56"
     id="rect2979" />
  <path
     d="m 769.01079,405.02149 10,155 c 0,0 24,61 23,119 0,0 -9,23 -2,27 7,4 11,7 7,10 -4,3 -7,10 -4,12 3,2 4,5 3,5 h -30 c 0,0 6,-15 -3,-19 -9,-4 -4,-14 -4,-14 l -67,-196 -53,180 c 0,0 9,6 2,9 -7,3 -10,-3 -7,3 3,6 -1,9 -1,10 0,1 -30,-3 -30,-3 0,0 15,-13 8,-16 -7,-3 -10,-6 -8,-8 2,-2 10,-21 10,-21 0,0 4,-72 5,-75 1,-3 0,-17 0,-24 0,-7 -1,-35 2,-42 3,-7 6,-93 22,-103 16,-10 117,-9 117,-9 z"
     transform="translate(-171.00024,-88.99633)"
     fill="#2f2e41"
     id="path2981" />
  <path
     d="m 642.01079,701.02149 c 0,0 20,41 6,46 -14,5 -32,1 -36,7 -4,6 -48,13 -49,-2 -1,-15 48,-43 48,-43 l 6.38294,-10.278 z"
     transform="translate(-171.00024,-88.99633)"
     fill="#2f2e41"
     id="path2983" />
  <path
     d="m 804.01079,731.02149 c 0,0 20,41 6,46 -14,5 -32,1 -36,7 -4,6 -48,13 -49,-2 -1,-15 48,-43 48,-43 l 6.38294,-10.278 z"
     transform="translate(-171.00024,-88.99633)"
     fill="#2f2e41"
     id="path2985" />
  <circle
     cx="540.51056"
     cy="94.525162"
     r="33"
     fill="#a0616a"
     id="circle2987" />
  <polygon
     points="529.011,164.025 521.011,153.025 521.011,115.025 563.011,112.025 559.011,141.025 "
     fill="#a0616a"
     id="polygon2989" />
  <path
     d="m 687.01079,238.02149 c 0,0 31,3 47,-8 l 32,189 c 0,0 -113,9 -118,3 v -59 l 20,-96 z"
     transform="translate(-171.00024,-88.99633)"
     fill="#3f3d56"
     id="path2991" />
  <path
     d="m 731.25716,220.98529 10.75363,9.0362 c 0,0 44,7 41,19 l -12,142 4,48 c 0,0 -34,-9 -60,0 -26,9 -5.34348,-193.40333 -5.34348,-193.40333 0,0 23.83622,-21.66908 21.58985,-24.63287 z"
     transform="translate(-171.00024,-88.99633)"
     fill="#d0cde1"
     id="path2993" />
  <path
     d="m 692.01079,231.93094 c 0,0 -32,23.09055 -36,38.09055 -4,15 -17,173 -17,173 0,0 6,-3 9,2 3,5 49,-205.1811 44,-213.09055 z"
     transform="translate(-171.00024,-88.99633)"
     fill="#d0cde1"
     id="path2995" />
  <path
     d="m 678.52663,182.08371 c 0,0 -3.57245,-5.35868 -2.19843,-11.12956 a 33.73126,33.73126 0 0 0 0.96181,-10.03036 c 0,0 2.88544,-9.34334 5.77089,-14.56461 2.88545,-5.22127 1.51142,-7.41972 10.58,-9.06854 9.06858,-1.64882 5.35868,-13.4654 29.26664,-0.687 a 7.01143,7.01143 0 0 0 7.28231,2.748 c 4.94647,-0.96181 6.7327,5.90829 6.7327,5.90829 0,0 3.29765,-1.92363 4.53427,0.82441 1.23662,2.74804 10.054,-1.64932 10.054,16.9 0,18.54932 -10.03388,35.11857 -10.03388,35.11857 0,0 0.73558,-31.20212 -15.61527,-34.36236 -16.35085,-3.16024 -33.93831,-12.36619 -38.19777,-0.54961 a 90.08054,90.08054 0 0 1 -9.13727,18.89277 z"
     transform="translate(-171.00024,-88.99633)"
     fill="#2f2e41"
     id="path2997" />
  <ellipse
     cx="570.83502"
     cy="96.205872"
     rx="3.2251699"
     ry="4.30023"
     fill="#a0616a"
     id="ellipse2999" />
  <path
     d="m 606.301,494.446 c -7.91283,-4.75844 -17.45386,-4.395 -21.08095,-4.03157 1.38129,3.37232 5.52576,11.974 13.43859,16.73484 7.93214,4.77052 17.4605,4.39622 21.08216,4.0352 -1.38066,-3.37116 -5.52573,-11.97647 -13.4398,-16.73847 z"
     transform="translate(-171.00024,-88.99633)"
     fill="#d0cde1"
     id="path3001" />
  <path
     d="m 643.48415,588.86985 h -49.45594 a 11.127585,11.127585 0 1 0 0,22.25517 h 49.45594 a 11.12759,11.12759 0 0 0 0,-22.25517 z"
     transform="translate(-171.00024,-88.99633)"
     fill="#d0cde1"
     id="path3003" />
  <path
     d="M 867.43777,471.412 H 590.15352 A 24.56242,24.56242 0 0 0 565.591,495.97447 v 135.09842 a 24.56248,24.56248 0 0 0 24.56248,24.56248 h 277.28429 a 24.56247,24.56247 0 0 0 24.56247,-24.56248 V 495.97447 A 24.56242,24.56242 0 0 0 867.43777,471.412 Z M 583.293,488.16737 c 0.54757,-0.099 13.53156,-2.30859 24.283,4.16077 10.75087,6.46815 14.88146,18.97582 15.0517,19.50467 l 0.43467,1.34869 -1.39517,0.24752 a 37.0364,37.0364 0 0 1 -6.01718,0.44191 c -4.88281,0 -11.95829,-0.80776 -18.26646,-4.60389 -10.75087,-6.46694 -14.88085,-18.97461 -15.0511,-19.50346 l -0.43467,-1.34869 z m 60.19112,125.43045 h -49.45591 a 13.60038,13.60038 0 0 1 0,-27.20076 h 49.45594 a 13.60038,13.60038 0 0 1 0,27.20076 z m 225.02452,-2.4728 a 14.88044,14.88044 0 0 1 -14.83678,14.83679 H 816.57994 A 14.88045,14.88045 0 0 1 801.74315,611.125 v -22.25515 a 14.8804,14.8804 0 0 1 14.83679,-14.83678 h 37.092 a 14.88039,14.88039 0 0 1 14.83678,14.83678 z"
     transform="translate(-171.00024,-88.99633)"
     fill="#d0cde1"
     id="path3005" />
  <path
     d="m 828.32572,606.79763 h -16.07318 a 4.327395,4.327395 0 0 0 0,8.65479 h 16.07318 a 4.327395,4.327395 0 1 0 0,-8.65479 z m 0,6.182 h -16.07318 a 1.8546,1.8546 0 1 1 0,-3.70919 h 16.07318 a 1.8546,1.8546 0 1 1 0,3.70919 z"
     transform="translate(-171.00024,-88.99633)"
     fill="#d0cde1"
     id="path3007" />
  <path
     d="m 857.99929,606.79763 h -16.07318 a 4.3274,4.3274 0 1 0 0,8.65479 h 16.07318 a 4.327395,4.327395 0 0 0 0,-8.65479 z m 0,6.182 h -16.07318 a 1.8546,1.8546 0 1 1 0,-3.70919 h 16.07318 a 1.8546,1.8546 0 0 1 0,3.70919 z"
     transform="translate(-171.00024,-88.99633)"
     fill="#d0cde1"
     id="path3009" />
  <path
     d="m 828.32572,595.67 h -16.07318 a 4.327395,4.327395 0 0 0 0,8.65479 h 16.07318 a 4.3274,4.3274 0 1 0 0,-8.65479 z m 0,6.182 h -16.07318 a 1.8546,1.8546 0 1 1 0,-3.7092 h 16.07318 a 1.8546,1.8546 0 1 1 0,3.7092 z"
     transform="translate(-171.00024,-88.99633)"
     fill="#d0cde1"
     id="path3011" />
  <path
     d="m 857.99929,595.67 h -16.07318 a 4.3274,4.3274 0 1 0 0,8.65479 h 16.07318 a 4.327395,4.327395 0 0 0 0,-8.65479 z m 0,6.182 h -16.07318 a 1.8546,1.8546 0 0 1 0,-3.7092 h 16.07318 a 1.8546,1.8546 0 0 1 0,3.7092 z"
     transform="translate(-171.00024,-88.99633)"
     fill="#d0cde1"
     id="path3013" />
  <path
     d="m 828.32572,584.54246 h -16.07318 a 4.327395,4.327395 0 0 0 0,8.65479 h 16.07318 a 4.327395,4.327395 0 1 0 0,-8.65479 z m 0,6.182 h -16.07318 a 1.8546,1.8546 0 0 1 0,-3.7092 h 16.07318 a 1.8546,1.8546 0 0 1 0,3.7092 z"
     transform="translate(-171.00024,-88.99633)"
     fill="#d0cde1"
     id="path3015" />
  <path
     d="m 857.99929,584.54246 h -16.07318 a 4.3274,4.3274 0 1 0 0,8.65479 h 16.07318 a 4.3274,4.3274 0 0 0 0,-8.65479 z m 0,6.182 h -16.07318 a 1.8546,1.8546 0 0 1 0,-3.7092 h 16.07318 a 1.8546,1.8546 0 0 1 0,3.7092 z"
     transform="translate(-171.00024,-88.99633)"
     fill="#d0cde1"
     id="path3017" />
  <path
     d="m 780.01079,441.02149 -7.1683,23.39148 c 0,0 -1.8317,43.60852 -25.8317,37.60852 -24,-6 7,-57 7,-57 l 7,-11 z"
     transform="translate(-171.00024,-88.99633)"
     fill="#a0616a"
     id="path3019" />
  <path
     d="m 644.01079,441.02149 -7.1683,23.39148 c 0,0 -1.8317,43.60852 -25.8317,37.60852 -24,-6 7,-57 7,-57 l 7,-11 z"
     transform="translate(-171.00024,-88.99633)"
     fill="#a0616a"
     id="path3021" />
  <path
     d="m 775.01079,242.02149 c 0,0 16,-4 21,23 5,27 11,104 11,104 l -24,81 c 0,0 -24,-13 -29,-11 l 18.88626,-70.32085 -15.88626,-71.67915 c 0,0 14,-55 18,-55 z"
     transform="translate(-171.00024,-88.99633)"
     fill="#d0cde1"
     id="path3023" />
  <polygon
     points="592.747,279.393 580.747,209.393 601.747,279.393 580.747,350.393 "
     opacity="0.15"
     id="polygon3025" />
  <path
     d="m 656.01079,297.02149 -36,142 c 0,0 18.98945,6.26719 25.98945,11.26719 z"
     transform="translate(-171.00024,-88.99633)"
     fill="#d0cde1"
     id="path3027" />
  <circle
     cx="107.3622"
     cy="464.88437"
     r="100"
     fill="#3f3d56"
     id="circle3029" />
  <circle
     cx="107.3622"
     cy="464.88437"
     r="86"
     opacity="0.1"
     id="circle3031" />
  <path
     d="m 274.24154,604.62862 v -12.51707 c -6.32734,-0.12344 -12.87306,-2.355 -16.69109,-5.45315 l 2.618,-8.30316 a 26.68127,26.68127 0 0 0 15.70942,5.3285 c 7.74578,0 12.98225,-5.081 12.98225,-12.14493 0,-6.81644 -4.2548,-11.02974 -12.32763,-14.74807 -11.12757,-4.957 -18.00034,-10.6582 -18.00034,-21.43985 0,-10.28667 6.43653,-18.09425 16.47324,-19.95312 v -12.51706 h 6.76357 v 12.02149 a 26.54268,26.54268 0 0 1 14.18232,4.33734 l -2.7277,8.17972 a 24.10675,24.10675 0 0 0 -13.74554,-4.2139 c -8.39987,0 -11.56381,5.70063 -11.56381,10.6582 0,6.4443 4.03641,9.66645 13.52769,14.12845 11.23623,5.205 16.90947,11.64935 16.90947,22.67909 0,9.79049 -6.00029,18.962 -17.23705,21.06771 v 12.88981 z"
     transform="translate(-171.00024,-88.99633)"
     fill="#8d99ae"
     id="path3033" />
  <path
     d="m 384.00024,757.28868 a 722.02568,722.02568 0 0 1 -213,0 v -24 a 802.32929,802.32929 0 0 0 213,0 z"
     transform="translate(-171.00024,-88.99633)"
     fill="#3f3d56"
     id="path3035" />
  <path
     d="m 384.00024,720.28868 a 722.02568,722.02568 0 0 1 -213,0 v -24 a 802.32929,802.32929 0 0 0 213,0 z"
     transform="translate(-171.00024,-88.99633)"
     fill="#3f3d56"
     id="path3037" />
  <path
     d="m 384.00024,683.28868 a 722.02568,722.02568 0 0 1 -213,0 v -24 a 802.32929,802.32929 0 0 0 213,0 z"
     transform="translate(-171.00024,-88.99633)"
     fill="#3f3d56"
     id="path3039" />
  <metadata
     id="metadata3103">
    <rdf:RDF>
      <cc:Work
         rdf:about="">
        <dc:title>pay_online</dc:title>
      </cc:Work>
    </rdf:RDF>
  </metadata>
</svg>
