<?xml version="1.0" encoding="UTF-8" standalone="no"?>
<svg
   data-name="Layer 1"
   width="900"
   height="700"
   viewBox="0 0 900 700"
   version="1.1"
   id="svg166"
   sodipodi:docname="undraw_fast_car_p-4-cu.svg"
   inkscape:version="1.1.1 (3bf5ae0d25, 2021-09-20)"
   xmlns:inkscape="http://www.inkscape.org/namespaces/inkscape"
   xmlns:sodipodi="http://sodipodi.sourceforge.net/DTD/sodipodi-0.dtd"
   xmlns="http://www.w3.org/2000/svg"
   xmlns:svg="http://www.w3.org/2000/svg"
   xmlns:rdf="http://www.w3.org/1999/02/22-rdf-syntax-ns#"
   xmlns:cc="http://creativecommons.org/ns#"
   xmlns:dc="http://purl.org/dc/elements/1.1/">
  <defs
     id="defs170" />
  <sodipodi:namedview
     id="namedview168"
     pagecolor="#ffffff"
     bordercolor="#111111"
     borderopacity="1"
     inkscape:pageshadow="0"
     inkscape:pageopacity="0"
     inkscape:pagecheckerboard="1"
     showgrid="false"
     width="900px"
     inkscape:zoom="0.54215994"
     inkscape:cx="158.62478"
     inkscape:cy="297.88258"
     inkscape:window-width="1920"
     inkscape:window-height="1027"
     inkscape:window-x="1272"
     inkscape:window-y="42"
     inkscape:window-maximized="1"
     inkscape:current-layer="svg166" />
  <title
     id="title2">fast car</title>
  <path
     d="M 571.91617,223.11348 H 463.01323 v -23.55392 a 5.6339348,5.6339348 0 0 0 -5.63394,-5.63394 h -31.97937 v -25.08967 a 3.5466638,3.5466638 0 0 0 -3.54665,-3.54667 h -41.19391 a 3.5466638,3.5466638 0 0 0 -3.54667,3.54667 v 25.09816 h -37.59632 a 5.6339348,5.6339348 0 0 0 -5.63395,5.63393 v 23.55393 H 230.03645 a 1.1454536,1.1454536 0 0 0 -1.13697,1.14544 v 312.67491 a 1.1454536,1.1454536 0 0 0 1.13697,1.14544 h 69.01571 a 1.1454536,1.1454536 0 0 0 1.14544,-1.14544 v -42.06785 a 1.1539385,1.1539385 0 0 1 1.14546,-1.14545 h 29.15391 a 1.1539385,1.1539385 0 0 1 1.14546,1.14545 v 42.06785 a 1.1454536,1.1454536 0 0 0 1.13697,1.14544 h 136.37685 a 1.1539385,1.1539385 0 0 0 1.14546,-1.14544 v -42.06785 a 1.1454536,1.1454536 0 0 1 1.13697,-1.14545 h 29.15391 a 1.1454536,1.1454536 0 0 1 1.14546,1.14545 v 42.06785 a 1.1539385,1.1539385 0 0 0 1.14545,1.14544 h 69.0157 a 1.1539385,1.1539385 0 0 0 1.14546,-1.14544 V 224.25894 a 1.1539385,1.1539385 0 0 0 -1.12849,-1.14546 z m -284.0725,256.00464 a 1.1369688,1.1369688 0 0 1 -1.13697,1.13697 h -42.62783 a 1.1369688,1.1369688 0 0 1 -1.14546,-1.13697 v -14.51756 a 1.1454536,1.1454536 0 0 1 1.14546,-1.14546 h 42.65329 a 1.1454536,1.1454536 0 0 1 1.13697,1.14546 z m 0,-37.62179 a 1.1369688,1.1369688 0 0 1 -1.13697,1.14546 h -42.62783 a 1.1369688,1.1369688 0 0 1 -1.14546,-1.14546 v -14.5515 a 1.1369688,1.1369688 0 0 1 1.14546,-1.14546 h 42.65329 a 1.1369688,1.1369688 0 0 1 1.13697,1.14546 z m 0,-37.6133 a 1.1454536,1.1454536 0 0 1 -1.13697,1.14546 h -42.62783 a 1.1454536,1.1454536 0 0 1 -1.14546,-1.14546 v -14.55999 a 1.1454536,1.1454536 0 0 1 1.14546,-1.14546 h 42.65329 a 1.1454536,1.1454536 0 0 1 1.13697,1.14546 z m 0,-37.62179 a 1.1369688,1.1369688 0 0 1 -1.13697,1.14546 h -42.62783 a 1.1369688,1.1369688 0 0 1 -1.14546,-1.14546 v -14.50908 a 1.1369688,1.1369688 0 0 1 1.14546,-1.14545 h 42.65329 a 1.1369688,1.1369688 0 0 1 1.13697,1.14545 z m 0,-37.6133 a 1.1454536,1.1454536 0 0 1 -1.13697,1.14545 h -42.62783 a 1.1454536,1.1454536 0 0 1 -1.14546,-1.14545 v -14.55999 a 1.1369688,1.1369688 0 0 1 1.14546,-1.13697 h 42.65329 a 1.1369688,1.1369688 0 0 1 1.13697,1.13697 z m 0,-37.6133 a 1.1369688,1.1369688 0 0 1 -1.13697,1.13697 h -42.62783 a 1.1369688,1.1369688 0 0 1 -1.14546,-1.13697 v -14.55999 a 1.1454536,1.1454536 0 0 1 1.14546,-1.14546 h 42.65329 a 1.1454536,1.1454536 0 0 1 1.13697,1.14546 z m 0,-37.62179 a 1.1369688,1.1369688 0 0 1 -1.13697,1.14545 h -42.62783 a 1.1369688,1.1369688 0 0 1 -1.14546,-1.14545 v -14.50908 a 1.1369688,1.1369688 0 0 1 1.14546,-1.14546 h 42.65329 a 1.1369688,1.1369688 0 0 1 1.13697,1.14546 z m 101.06295,225.69678 a 1.1369688,1.1369688 0 0 1 -1.14545,1.13697 h -42.62784 a 1.1454536,1.1454536 0 0 1 -1.14546,-1.13697 v -14.50907 a 1.1539385,1.1539385 0 0 1 1.14546,-1.14546 h 42.62784 a 1.1454536,1.1454536 0 0 1 1.14545,1.14546 z m 0,-37.62179 a 1.1369688,1.1369688 0 0 1 -1.14545,1.14546 h -42.62784 a 1.1454536,1.1454536 0 0 1 -1.14546,-1.14546 v -14.54301 a 1.1454536,1.1454536 0 0 1 1.14546,-1.14546 h 42.62784 a 1.1369688,1.1369688 0 0 1 1.14545,1.14546 z m 0,-37.6133 a 1.1454536,1.1454536 0 0 1 -1.14545,1.14546 h -42.62784 a 1.1539385,1.1539385 0 0 1 -1.14546,-1.14546 v -14.5515 a 1.1539385,1.1539385 0 0 1 1.14546,-1.14546 h 42.62784 a 1.1454536,1.1454536 0 0 1 1.14545,1.14546 z m 0,-37.62179 a 1.1369688,1.1369688 0 0 1 -1.14545,1.14546 h -42.62784 a 1.1454536,1.1454536 0 0 1 -1.14546,-1.14546 v -14.50059 a 1.1454536,1.1454536 0 0 1 1.14546,-1.14545 h 42.62784 a 1.1369688,1.1369688 0 0 1 1.14545,1.14545 z m 0,-37.6133 a 1.1454536,1.1454536 0 0 1 -1.14545,1.14546 h -42.62784 a 1.1539385,1.1539385 0 0 1 -1.14546,-1.14546 v -14.5515 a 1.1454536,1.1454536 0 0 1 1.14546,-1.13697 h 42.62784 a 1.1369688,1.1369688 0 0 1 1.14545,1.13697 z m 0,-37.6133 a 1.1369688,1.1369688 0 0 1 -1.14545,1.13697 h -42.62784 a 1.1454536,1.1454536 0 0 1 -1.14546,-1.13697 v -14.5515 a 1.1539385,1.1539385 0 0 1 1.14546,-1.14546 h 42.62784 a 1.1454536,1.1454536 0 0 1 1.14545,1.14546 z m 0,-37.62179 a 1.1369688,1.1369688 0 0 1 -1.14545,1.14546 h -42.62784 a 1.1454536,1.1454536 0 0 1 -1.14546,-1.14546 v -14.50059 a 1.1454536,1.1454536 0 0 1 1.14546,-1.14546 h 42.62784 a 1.1369688,1.1369688 0 0 1 1.14545,1.14546 z m 69.05813,225.69679 a 1.1369688,1.1369688 0 0 1 -1.14545,1.13697 h -42.62785 a 1.1454536,1.1454536 0 0 1 -1.14545,-1.13697 v -14.50059 a 1.1539385,1.1539385 0 0 1 1.14545,-1.14546 h 42.62785 a 1.1454536,1.1454536 0 0 1 1.14545,1.14546 z m 0,-37.62179 a 1.1369688,1.1369688 0 0 1 -1.14545,1.14546 h -42.62785 a 1.1454536,1.1454536 0 0 1 -1.14545,-1.14546 v -14.53453 a 1.1454536,1.1454536 0 0 1 1.14545,-1.14546 h 42.62785 a 1.1369688,1.1369688 0 0 1 1.14545,1.14546 z m 0,-37.6133 a 1.1454536,1.1454536 0 0 1 -1.14545,1.14545 h -42.62785 a 1.1539385,1.1539385 0 0 1 -1.14545,-1.14545 v -14.54302 a 1.1539385,1.1539385 0 0 1 1.14545,-1.14546 h 42.62785 a 1.1454536,1.1454536 0 0 1 1.14545,1.14546 z m 0,-37.62179 a 1.1369688,1.1369688 0 0 1 -1.14545,1.14545 h -42.62785 a 1.1454536,1.1454536 0 0 1 -1.14545,-1.14545 v -14.49211 a 1.1454536,1.1454536 0 0 1 1.14545,-1.14545 h 42.62785 a 1.1369688,1.1369688 0 0 1 1.14545,1.14545 z m 0,-37.61331 a 1.1454536,1.1454536 0 0 1 -1.14545,1.14546 h -42.62785 a 1.1539385,1.1539385 0 0 1 -1.14545,-1.14546 v -14.54301 a 1.1454536,1.1454536 0 0 1 1.14545,-1.13697 h 42.62785 a 1.1369688,1.1369688 0 0 1 1.14545,1.13697 z m 0,-37.6133 a 1.1369688,1.1369688 0 0 1 -1.14545,1.13697 h -42.62785 a 1.1454536,1.1454536 0 0 1 -1.14545,-1.13697 v -14.54301 a 1.1539385,1.1539385 0 0 1 1.14545,-1.14546 h 42.62785 a 1.1454536,1.1454536 0 0 1 1.14545,1.14546 z m 0,-37.62179 a 1.1369688,1.1369688 0 0 1 -1.14545,1.14546 h -42.62785 a 1.1454536,1.1454536 0 0 1 -1.14545,-1.14546 v -14.4921 a 1.1454536,1.1454536 0 0 1 1.14545,-1.14546 h 42.62785 a 1.1369688,1.1369688 0 0 1 1.14545,1.14546 z M 559.0277,479.09266 a 1.1454536,1.1454536 0 0 1 -1.14546,1.13697 H 515.2544 a 1.1369688,1.1369688 0 0 1 -1.14545,-1.13697 v -14.4921 a 1.1454536,1.1454536 0 0 1 1.14545,-1.14546 h 42.62784 a 1.1539385,1.1539385 0 0 1 1.14546,1.14546 z m 0,-37.62179 a 1.1454536,1.1454536 0 0 1 -1.14546,1.14546 H 515.2544 a 1.1369688,1.1369688 0 0 1 -1.14545,-1.14546 v -14.52604 a 1.1369688,1.1369688 0 0 1 1.14545,-1.14546 h 42.62784 a 1.1454536,1.1454536 0 0 1 1.14546,1.14546 z m 0,-37.6133 a 1.1539385,1.1539385 0 0 1 -1.14546,1.14546 H 515.2544 a 1.1454536,1.1454536 0 0 1 -1.14545,-1.14546 v -14.53453 a 1.1454536,1.1454536 0 0 1 1.14545,-1.14546 h 42.62784 a 1.1539385,1.1539385 0 0 1 1.14546,1.14546 z m 0,-37.62178 a 1.1454536,1.1454536 0 0 1 -1.14546,1.14545 H 515.2544 a 1.1369688,1.1369688 0 0 1 -1.12849,-1.12 v -14.50908 a 1.1369688,1.1369688 0 0 1 1.14546,-1.14545 h 42.62785 a 1.1454536,1.1454536 0 0 1 1.14545,1.14545 z m 0,-37.61331 a 1.1539385,1.1539385 0 0 1 -1.14546,1.14545 H 515.2544 a 1.1454536,1.1454536 0 0 1 -1.14545,-1.14545 v -14.53453 a 1.1369688,1.1369688 0 0 1 1.14545,-1.13697 h 42.62784 a 1.1454536,1.1454536 0 0 1 1.14546,1.13697 z m 0,-37.6133 a 1.1454536,1.1454536 0 0 1 -1.14546,1.13697 H 515.2544 a 1.1369688,1.1369688 0 0 1 -1.14545,-1.13697 v -14.53453 a 1.1454536,1.1454536 0 0 1 1.14545,-1.14546 h 42.62784 a 1.1539385,1.1539385 0 0 1 1.14546,1.14546 z m 0,-37.62178 a 1.1454536,1.1454536 0 0 1 -1.14546,1.14544 H 515.2544 a 1.1369688,1.1369688 0 0 1 -1.12849,-1.11999 v -14.50908 a 1.1369688,1.1369688 0 0 1 1.14546,-1.14546 h 42.62785 a 1.1454536,1.1454536 0 0 1 1.14545,1.14546 z"
     fill="#f2f2f2"
     id="path4"
     style="stroke-width:0.848484" />
  <path
     d="m 243.2728,92.871164 -13.16847,8.349086 7.99272,-14.54302 a 13.024232,13.024232 0 0 0 -7.95878,-2.842422 h -0.21212 a 15.349078,15.349078 0 0 1 -2.73212,-0.203636 l -4.46303,2.825452 1.90909,-3.478785 a 15.832715,15.832715 0 0 1 -7.80605,-5.93939 l -7.98424,5.090905 5.04,-9.172113 c -4.66667,-5.60848 -10.96242,-9.044841 -17.89453,-9.044841 -8.30667,0 -15.70545,4.938178 -20.48241,12.633929 a 15.272715,15.272715 0 0 1 -13.57575,7.296964 h -0.44121 c -9.17211,0 -16.60484,10.402416 -16.60484,23.223007 0,12.8206 7.46667,23.23149 16.63878,23.23149 a 12.489687,12.489687 0 0 0 5.77818,-1.4509 23.935738,23.935738 0 0 1 20.10058,-0.3903 20.92362,20.92362 0 0 0 17.08848,0 23.952708,23.952708 0 0 1 19.91392,0.3903 12.489687,12.489687 0 0 0 5.72727,1.4509 c 9.17211,0 16.60483,-10.40241 16.60483,-23.23149 a 29.442401,29.442401 0 0 0 -3.4703,-14.195136 z"
     fill="#f2f2f2"
     id="path6"
     style="stroke-width:0.848484" />
  <path
     d="m 218.45464,126.85295 a 24.512708,24.512708 0 0 0 -14.22908,1.54424 20.949074,20.949074 0 0 1 -17.07999,0 23.995132,23.995132 0 0 0 -20.10059,0.3903 12.396353,12.396353 0 0 1 -5.78666,1.45092 c -8.14545,0 -14.92483,-8.20485 -16.33332,-19.0315 a 15.637563,15.637563 0 0 0 4.07272,-4.39515 c 4.77697,-7.695752 12.17576,-12.63393 20.48242,-12.63393 8.30665,0 15.6121,4.878784 20.36361,12.49817 a 15.679987,15.679987 0 0 0 13.53333,7.43272 h 0.21212 c 6.51635,-0.0424 12.13332,5.15879 14.86544,12.74423 z"
     opacity="0.03"
     id="path8"
     style="stroke-width:0.848484" />
  <path
     d="m 707.37667,69.783911 -6.58424,4.166056 3.98788,-7.254539 a 6.5078735,6.5078735 0 0 0 -3.9709,-1.416969 h -0.10182 a 7.2969638,7.2969638 0 0 1 -1.36607,-0.101818 l -2.22302,1.416969 0.95029,-1.696969 a 7.9757511,7.9757511 0 0 1 -3.89453,-2.952725 l -3.9794,2.545452 2.54546,-4.573329 a 11.632718,11.632718 0 0 0 -8.91757,-4.581814 c -4.14061,0 -7.83151,2.469089 -10.18181,6.304237 a 7.6363574,7.6363574 0 0 1 -6.78787,3.639997 h -0.22062 c -4.57332,0 -8.2812,5.184238 -8.2812,11.581809 0,6.39757 3.70788,11.581809 8.2812,11.581809 a 6.2109041,6.2109041 0 0 0 2.88486,-0.721212 11.946657,11.946657 0 0 1 10.02059,-0.195151 10.46181,10.46181 0 0 0 8.52726,0 11.972112,11.972112 0 0 1 9.93576,0.195151 6.1854495,6.1854495 0 0 0 2.85091,0.704243 c 4.57332,0 8.2812,-5.184239 8.2812,-11.58181 a 14.746655,14.746655 0 0 0 -1.75636,-7.059387 z"
     fill="#f2f2f2"
     id="path10"
     style="stroke-width:0.848484" />
  <path
     d="m 694.99728,86.728139 a 12.31999,12.31999 0 0 0 -7.10181,0.77212 10.419385,10.419385 0 0 1 -4.24242,0.899394 10.529688,10.529688 0 0 1 -4.24242,-0.916363 11.963627,11.963627 0 0 0 -10.02909,0.195151 6.1854495,6.1854495 0 0 1 -2.88484,0.721212 c -4.06424,0 -7.4412,-4.089694 -8.14545,-9.494538 a 7.8569633,7.8569633 0 0 0 2.03637,-2.189089 c 2.37575,-3.835149 6.06666,-6.304237 10.1818,-6.304237 4.11515,0 7.78909,2.435149 10.18182,6.236358 a 7.8230239,7.8230239 0 0 0 6.78787,3.707876 h 0.1103 c 3.18182,0 5.98182,2.596361 7.34787,6.372116 z"
     opacity="0.03"
     id="path12"
     style="stroke-width:0.848484" />
  <path
     d="m 542.50771,146.08808 -7.7212,4.89576 4.68362,-8.48484 a 7.6363574,7.6363574 0 0 0 -4.66665,-1.69697 h -0.12728 a 9.1551441,9.1551441 0 0 1 -1.60363,-0.11878 l -2.61333,1.69696 1.11999,-2.04484 a 9.3333258,9.3333258 0 0 1 -4.58181,-3.4703 l -4.68363,2.96969 2.96121,-5.37939 a 13.703019,13.703019 0 0 0 -10.49575,-5.31151 c -4.8703,0 -9.21454,2.90182 -12.01453,7.41575 a 8.9599927,8.9599927 0 0 1 -7.94182,4.24242 h -0.26303 c -5.37939,0 -9.73211,6.1006 -9.73211,13.57574 0,7.47515 4.35272,13.61818 9.73211,13.61818 a 7.2630244,7.2630244 0 0 0 3.39394,-0.84849 14.050898,14.050898 0 0 1 11.78545,-0.22909 12.31999,12.31999 0 0 0 10.02059,0 14.067867,14.067867 0 0 1 11.68363,0.22909 7.3648425,7.3648425 0 0 0 3.39394,0.84849 c 5.37938,0 9.74059,-6.09212 9.74059,-13.61818 a 17.309077,17.309077 0 0 0 -2.0703,-8.28969 z"
     fill="#f2f2f2"
     id="path14"
     style="stroke-width:0.848484" />
  <path
     d="m 527.95621,166.01898 a 14.424231,14.424231 0 0 0 -8.34909,0.90788 12.31999,12.31999 0 0 1 -10.02059,0 14.050898,14.050898 0 0 0 -11.78545,0.22909 7.2884789,7.2884789 0 0 1 -3.39394,0.84849 c -4.77696,0 -8.75635,-4.81091 -9.57938,-11.15758 a 9.1212047,9.1212047 0 0 0 2.38424,-2.54545 c 2.8,-4.51393 7.14423,-7.40726 12.01453,-7.40726 4.87031,0 9.16363,2.85939 11.96363,7.32242 a 9.1805986,9.1805986 0 0 0 7.93333,4.3612 h 0.0934 c 3.83515,-0.0594 7.13575,2.99515 8.73939,7.44121 z"
     opacity="0.03"
     id="path16"
     style="stroke-width:0.848484" />
  <path
     d="m 820.32688,538.2914 c 0,1.45939 0,2.91879 -0.0934,4.36121 a 103.15022,103.15022 0 0 1 -2.01938,16.70666 c -5.57455,27.24482 -21.67029,48.42298 -41.88967,54.67632 a 41.821784,41.821784 0 0 1 -12.42181,1.89211 c -31.16482,0 -56.42419,-34.78785 -56.42419,-77.6363 0,-42.84845 25.25937,-77.6363 56.42419,-77.6363 29.23028,0 53.27633,30.59634 56.13571,69.78782 0.19515,2.5794 0.28849,5.20121 0.28849,7.84848 z"
     fill="#36334a"
     id="path18"
     style="stroke-width:0.848484" />
  <path
     d="m 820.23354,542.6611 a 103.15022,103.15022 0 0 1 -2.01938,16.70665 c -5.57455,27.24483 -21.6703,48.42299 -41.88967,54.67632 -15.65453,-7.20364 -27.27028,-34.2024 -27.27028,-66.41085 0,-37.72361 15.95151,-68.30299 35.63633,-68.30299 16.51999,0 30.41816,21.56848 34.44846,50.8327 0.56,4.01332 0.92485,8.20484 1.09454,12.49817 z"
     opacity="0.1"
     id="path20"
     style="stroke-width:0.848484" />
  <path
     d="m 536.93317,366.47336 c 0,0 152.72715,-31.39391 233.33314,-2.54545 0,0 11.87878,5.93938 0,16.1212 0,0 11.23393,11.87878 -8.38302,16.1212 l -77.93327,4.79393 -147.01685,-14.97574 z"
     fill="#3f3d56"
     id="path22"
     style="stroke-width:0.848484" />
  <path
     d="m 563.66042,370.41881 c 0,0 130.7599,-26.87998 199.7756,-2.1806 0,0 10.18181,5.0909 0,13.80483 0,0 9.61333,10.18182 -7.17818,13.80485 l -66.7248,4.09817 -125.87262,-12.80363 z"
     opacity="0.1"
     id="path24"
     style="stroke-width:0.848484" />
  <path
     d="m 712.56939,417.38241 -10.18181,-20.36362 c 0,0 4.46302,-20.60119 -31.81816,-26.65938 -2.0109,-8.98544 -11.12362,-15.76483 -22.06058,-15.76483 -10.67393,0 -19.59998,6.44848 -21.90786,15.10302 -5.2097,0.4497 -10.75878,1.0606 -16.69817,1.86667 l -8.29818,44.49451 -1.03514,-2.0703 c 0,0 5.26908,-24.33453 -42.22058,-27.88968 a 17.66544,17.66544 0 0 0 4.03878,-11.14059 c 0,-10.78424 -10.07151,-19.51514 -22.48482,-19.51514 -12.41332,0 -22.48484,8.7309 -22.48484,19.51514 a 17.818168,17.818168 0 0 0 4.71758,11.94665 q -6.6606,0.63636 -14.0509,1.62909 l -9.33332,50.06056 43.27268,5.93939 68.72722,-10.1818 -6.08363,-12.17575 39.17451,5.37938 z"
     fill="#8d99ae"
     id="path26"
     style="stroke-width:0.848484" />
  <path
     d="m 712.56939,417.38241 -10.18181,-20.36362 c 0,0 4.46302,-20.60119 -31.81816,-26.65938 -2.0109,-8.98544 -11.12362,-15.76483 -22.06058,-15.76483 -10.67393,0 -19.59998,6.44848 -21.90786,15.10302 -5.2097,0.4497 -10.75878,1.0606 -16.69817,1.86667 l -8.29818,44.49451 -1.03514,-2.0703 c 0,0 5.26908,-24.33453 -42.22058,-27.88968 a 17.66544,17.66544 0 0 0 4.03878,-11.14059 c 0,-10.78424 -10.07151,-19.51514 -22.48482,-19.51514 -12.41332,0 -22.48484,8.7309 -22.48484,19.51514 a 17.818168,17.818168 0 0 0 4.71758,11.94665 q -6.6606,0.63636 -14.0509,1.62909 l -9.33332,50.06056 43.27268,5.93939 68.72722,-10.1818 -6.08363,-12.17575 39.17451,5.37938 z"
     opacity="0.2"
     id="path28"
     style="stroke-width:0.848484" />
  <path
     d="m 566.61315,372.31094 c 0,0 -6.78788,-38.07998 24.60604,-38.92847 31.39391,-0.84847 21.2121,55.15148 21.2121,55.15148 0,0 23.75756,5.0909 25.45453,14.42423 1.69696,9.33332 -82.30297,11.87878 -82.30297,11.87878 z"
     fill="#8d99ae"
     id="path30"
     style="stroke-width:0.848484" />
  <path
     d="m 511.47864,573.50349 c 0,44.96966 -33.43027,81.45448 -74.6666,81.45448 -41.23634,0 -74.66661,-36.48482 -74.66661,-81.45448 0,-44.96966 33.84604,-88.66659 75.09085,-88.66659 41.24482,0 74.24236,43.67997 74.24236,88.66659 z"
     fill="#36334a"
     id="path32"
     style="stroke-width:0.848484" />
  <ellipse
     cx="436.81204"
     cy="576.89746"
     rx="59.39389"
     ry="68.718727"
     opacity="0.1"
     id="ellipse34"
     style="stroke-width:0.848484" />
  <ellipse
     cx="108.44868"
     cy="565.85864"
     rx="74.666611"
     ry="81.454475"
     fill="#36334a"
     id="ellipse36"
     style="stroke-width:0.848484" />
  <path
     d="m 235.72129,371.56427 c 0,0 -34.78785,1.69696 -33.09088,20.36362 1.69697,18.66665 29.69695,5.0909 29.69695,5.0909 z"
     fill="#36334a"
     id="path38"
     style="stroke-width:0.848484" />
  <path
     d="m 525.15621,402.66121 14.32241,-95.58174 c 0,0 3.39394,-11.87878 -42.42421,-11.87878 0,0 -146.78776,-9.33333 -184.12105,5.93939 0,0 -43.2727,16.1212 -103.51508,99.27265 0,0 309.79854,7.33939 315.73793,2.24848 z"
     fill="#3f3d56"
     id="path40"
     style="stroke-width:0.848484" />
  <path
     d="m 519.96349,302.83705 -26.30302,104.36355 -16.49452,-0.39879 -78.06055,-1.9006 -174.10046,-4.24242 c -0.48364,-8.24727 81.96357,-93.57932 81.96357,-93.57932 z"
     fill="#36334a"
     id="path42"
     style="stroke-width:0.848484" />
  <path
     d="m 399.13086,404.90121 7.1103,-27.49088 c 0,0 -6.78788,-38.08847 24.60603,-38.93694 31.39392,-0.84849 21.21211,55.15146 21.21211,55.15146 0,0 21.63635,4.64121 25.08119,13.17696 z"
     fill="#8d99ae"
     opacity="0.2"
     id="path44"
     style="stroke-width:0.848484" />
  <path
     d="m 820.75112,532.35201 c -5.0909,-49.21208 -36.90906,-59.81813 -36.90906,-59.81813 -30.54543,-1.69696 -50.90904,114.54536 -50.90904,114.54536 L 497.9029,608.29135 c 0,0 8.0606,-98.84841 -48.78784,-114.96961 -56.84844,-16.1212 -71.69691,99.69689 -74.24236,115.81809 -2.54545,16.1212 -342.787597,-1.69697 -352.120922,-8.48484 -9.333326,-6.78787 -5.939389,-72.12116 -3.393937,-77.21206 2.545453,-5.0909 9.333326,-27.99998 9.333326,-27.99998 0,-5.46424 2.613331,-12.3709 4.78545,-17.16483 1.527271,-3.39394 2.850907,-5.74424 2.850907,-5.74424 7.373327,-41.81329 45.656933,-51.93571 48.22784,-52.60601 h 0.135757 C 94.872931,409.74605 189.05467,402.95818 189.05467,402.95818 l 35.63633,-6.78787 289.73188,5.69332 12.32848,0.24607 147.29685,-7.08485 99.61204,-4.79394 c 22.90907,0 34.78785,57.69693 34.78785,57.69693 21.2121,50.90905 12.30302,84.42417 12.30302,84.42417 z"
     fill="#3f3d56"
     id="path46"
     style="stroke-width:0.848484" />
  <ellipse
     cx="138.2114"
     cy="548.24261"
     rx="43.679962"
     ry="27.346643"
     transform="rotate(-21.92)"
     opacity="0.1"
     id="ellipse48"
     style="stroke-width:0.848484" />
  <ellipse
     cx="137.90649"
     cy="544.4577"
     rx="43.679962"
     ry="27.346643"
     transform="rotate(-21.92)"
     fill="#f2f2f2"
     id="ellipse50"
     style="stroke-width:0.848484" />
  <path
     d="m 86.252332,421.65877 c -0.432727,9.33333 -4.615754,21.11029 -12.141809,32.45452 -12.107869,18.25938 -28.712704,29.00967 -38.936938,25.86179 1.527271,-3.39392 2.850907,-5.74424 2.850907,-5.74424 7.373327,-41.81329 45.656933,-51.93571 48.22784,-52.57207 z"
     opacity="0.1"
     id="path52"
     style="stroke-width:0.848484" />
  <path
     d="m 83.70688,419.9618 c -0.432728,9.33333 -4.615754,21.11029 -12.14181,32.45452 -12.107868,18.25938 -28.712703,29.00968 -38.936937,25.8618 1.527271,-3.39394 2.850907,-5.74424 2.850907,-5.74424 7.373327,-41.81329 45.656932,-51.93571 48.22784,-52.57208 z"
     fill="#f2f2f2"
     id="path54"
     style="stroke-width:0.848484" />
  <polygon
     points="136.25,448.69 232.25,448.69 219.25,459.69 140.25,459.69 "
     fill="#36334a"
     id="polygon56"
     transform="matrix(0.84848416,0,0,0.84848416,16.600267,55.334225)" />
  <rect
     x="77.054764"
     y="514.10114"
     width="110.30294"
     height="32.242397"
     fill="#36334a"
     id="rect58"
     style="stroke-width:0.848484" />
  <circle
     cx="306.14551"
     cy="562.46472"
     opacity="0.1"
     id="circle60"
     r="15.272715"
     style="stroke-width:0.848484" />
  <circle
     cx="304.44852"
     cy="559.91925"
     fill="#f2f2f2"
     id="circle62"
     r="15.272715"
     style="stroke-width:0.848484" />
  <ellipse
     cx="28.691168"
     cy="550.58594"
     rx="7.6363573"
     ry="16.121199"
     opacity="0.1"
     id="ellipse64"
     style="stroke-width:0.848484" />
  <ellipse
     cx="26.145714"
     cy="549.73743"
     rx="7.6363573"
     ry="16.121199"
     fill="#f2f2f2"
     id="ellipse66"
     style="stroke-width:0.848484" />
  <path
     d="m 698.99365,481.86721 c -9.33333,28.84846 -10.18182,73.81812 -10.18182,73.81812 l -3.39394,11.87877 -165.4544,18.66666 c 0,0 0.84848,-83.15145 3.39393,-122.18172 1.7903,-27.53332 -4.85332,-50.84117 -8.93454,-62.18541 l 12.32848,0.24607 147.29685,-7.08485 c 24.60604,17.24969 33.31998,60.93814 24.94544,86.84236 z"
     fill="#36334a"
     id="path68"
     style="stroke-width:0.848484" />
  <path
     d="m 661.27004,429.85512 a 4.1660572,4.1660572 0 0 0 -3.83515,4.82788 2.9781794,2.9781794 0 0 0 1.69696,2.21455 c 2.74062,1.36606 20.98303,-1.69698 27.89817,-2.91879 a 4.6921173,4.6921173 0 0 0 3.92,-4.18303 c 0.0849,-1.20484 -0.35637,-2.23151 -2.12121,-2.23151 z"
     fill="#f2f2f2"
     id="path70"
     style="stroke-width:0.848484" />
  <path
     d="m 514.0241,398.71576 c 0,0 4.24242,18.66665 24.60604,12.72726 l 6.78787,-26.30301 -13.57574,-7.63635 z"
     fill="#36334a"
     id="path72"
     style="stroke-width:0.848484" />
  <path
     d="m 538.96105,360.81397 c 9.33332,-5.53211 24.13938,-10.36847 38.78421,1.24728 a 17.309077,17.309077 0 0 1 4.99757,20.82179 c -4.79393,10.37696 -16.17211,21.63635 -42.73815,8.15394 a 17.13938,17.13938 0 0 1 -6.46545,-5.71879 l -0.13575,-0.20363 a 17.224229,17.224229 0 0 1 5.55757,-24.30059 z"
     fill="#36334a"
     id="path74"
     style="stroke-width:0.848484" />
  <circle
     cx="437.23633"
     cy="573.07074"
     fill="#f2f2f2"
     id="circle76"
     r="16.969683"
     style="stroke-width:0.848484" />
  <ellipse
     cx="787.66028"
     cy="542.52533"
     rx="9.3333263"
     ry="16.969683"
     fill="#f2f2f2"
     id="ellipse78"
     style="stroke-width:0.848484" />
  <rect
     x="425.78177"
     y="520.88898"
     width="22.060587"
     height="29.696945"
     rx="10.181809"
     fill="#36334a"
     id="rect80"
     style="stroke-width:0.848484" />
  <path
     d="m 787.66024,488.22235 v 0 a 5.9393891,5.9393891 0 0 1 5.93939,5.93939 v 13.57575 a 10.18181,10.18181 0 0 1 -10.18181,10.18181 v 0 a 5.9393891,5.9393891 0 0 1 -5.93939,-5.93939 v -13.57574 a 10.18181,10.18181 0 0 1 10.18181,-10.18182 z"
     fill="#36334a"
     id="path82"
     style="stroke-width:0.848484" />
  <path
     d="m 787.66024,596.83681 v 0 A 10.18181,10.18181 0 0 1 777.47843,586.655 v -9.33333 a 10.18181,10.18181 0 0 1 10.18181,-10.18181 v 0 c 5.59999,0 5.09091,4.58182 5.09091,10.18181 v 9.33333 c -0.009,5.6 0.52605,10.18181 -5.09091,10.18181 z"
     fill="#36334a"
     id="path84"
     style="stroke-width:0.848484" />
  <path
     d="m 762.20572,527.25262 v 0 a 10.18181,10.18181 0 0 1 10.1818,10.18182 v 12.72725 a 6.7878733,6.7878733 0 0 1 -6.78787,6.78788 v 0 A 10.18181,10.18181 0 0 1 755.41784,546.76776 V 534.0405 a 6.7878733,6.7878733 0 0 1 6.78788,-6.78788 z"
     fill="#36334a"
     id="path86"
     style="stroke-width:0.848484" />
  <path
     d="m 820.32688,538.2914 c 0,1.45939 0,2.91879 -0.0934,4.36121 a 103.15022,103.15022 0 0 1 -2.01938,16.70666 10.359992,10.359992 0 0 1 -1.69698,0.14424 10.18181,10.18181 0 0 1 -10.1818,-10.18182 v -9.33331 a 10.18181,10.18181 0 0 1 10.1818,-10.18182 9.9357491,9.9357491 0 0 1 2.63031,0.34788 c 0.30545,0.0849 0.6109,0.17818 0.89939,0.28848 0.18666,2.5794 0.28,5.20121 0.28,7.84848 z"
     fill="#36334a"
     id="path88"
     style="stroke-width:0.848484" />
  <rect
     x="468.63022"
     y="556.94958"
     width="22.060587"
     height="29.696945"
     rx="10.181809"
     fill="#36334a"
     id="rect90"
     style="stroke-width:0.848484" />
  <rect
     x="385.47876"
     y="556.94958"
     width="22.060587"
     height="29.696945"
     rx="10.181809"
     fill="#36334a"
     id="rect92"
     style="stroke-width:0.848484" />
  <rect
     x="426.20602"
     y="601.07074"
     width="22.060587"
     height="29.696945"
     rx="10.181809"
     fill="#36334a"
     id="rect94"
     style="stroke-width:0.848484" />
  <path
     d="m 733.57786,230.13044 a 13.93211,13.93211 0 0 1 -0.84848,4.74303 14.084837,14.084837 0 0 1 -26.37937,0.37333 13.855747,13.855747 0 0 1 -0.96728,-5.09091 14.08484,14.08484 0 0 1 28.16968,0 z"
     fill="#ff6584"
     id="path96"
     style="stroke-width:0.848484" />
  <path
     d="m 708.24212,233.64316 a 14.084837,14.084837 0 0 1 5.48121,-19.15028 13.940594,13.940594 0 0 1 5.0909,-1.69697 14.084837,14.084837 0 1 0 1.18788,28.05937 14.076352,14.076352 0 0 1 -11.75999,-7.21212 z"
     fill="#ff6584"
     id="path98"
     style="stroke-width:0.848484" />
  <rect
     x="701.88696"
     y="249.74741"
     width="37.732094"
     height="58.859348"
     fill="#ff6584"
     id="rect100"
     style="stroke-width:0.848484" />
  <rect
     x="702.73547"
     y="248.05043"
     width="37.732094"
     height="58.859348"
     opacity="0.1"
     id="rect102"
     style="stroke-width:0.848484" />
  <path
     d="m 642.24703,463.29388 c 0,0 -4.02182,11.03031 -13.57575,12.57454 -9.55394,1.54425 -15.06908,4.00484 -15.06908,4.00484 l 22.63755,14.58545 12.07394,-1.5103 c 0,0 1.50181,-15.59514 6.53333,-19.11634 5.0315,-3.52122 -12.59999,-10.53819 -12.59999,-10.53819 z"
     fill="#fbbebe"
     id="path104"
     style="stroke-width:0.848484" />
  <path
     d="m 805.76689,463.29388 c 0,0 4.02181,11.03031 13.57575,12.57454 9.55393,1.54425 15.08605,4.0303 15.08605,4.0303 l -22.63756,14.58544 -12.07393,-1.5103 c 0,0 -1.50182,-15.59514 -6.53333,-19.11634 -5.03151,-3.52121 12.58302,-10.56364 12.58302,-10.56364 z"
     fill="#fbbebe"
     id="path106"
     style="stroke-width:0.848484" />
  <path
     d="m 695.59971,365.70124 c 0,0 -6.04121,3.02061 -8.05212,9.05333 0,0 -11.03029,3.52121 -17.10543,13.08362 0,0 -7.54303,8.04363 -8.55273,12.07393 -1.00969,4.0303 -12.57453,28.20362 -12.57453,28.20362 0,0 -11.56485,37.72361 -17.60604,41.7539 0,0 19.11634,-4.03029 22.63755,15.08605 0,0 4.53091,0 9.56241,-17.60604 5.03151,-17.60605 17.09696,-39.23391 17.09696,-39.23391 0,0 4.0303,-15.09453 7.55151,-17.60605 3.52121,-2.51151 9.05333,-14.08484 14.08483,-11.07271 5.03152,3.01211 38.23271,-0.50061 38.23271,-0.50061 0,0 19.61695,9.05332 20.11755,15.09453 0.50061,6.04121 4.0303,6.53333 4.53091,11.56484 0.50061,5.03151 19.11634,44.7745 19.11634,44.7745 0,0 3.52121,11.0303 4.52243,13.57575 0,0 11.07271,-26.65937 25.65816,-11.57332 0,0 -0.50061,-10.06302 -5.03152,-16.1212 -4.5309,-6.05817 -24.14785,-53.32723 -24.14785,-53.32723 0,0 -2.01091,-7.04242 -4.02182,-9.05333 -2.0109,-2.0109 -17.60604,-18.10665 -23.12968,-18.10665 0,0 -3.0206,-7.55151 -6.54181,-8.55271 z"
     fill="#696880"
     id="path108"
     style="stroke-width:0.848484" />
  <path
     d="m 650.32459,489.45265 a 24.512708,24.512708 0 0 1 -23.95271,-3.22423 47.744204,47.744204 0 0 0 -10.68241,-6.18545 c -5.32848,-2.15515 -11.71757,-3.75878 -13.66059,-0.14425 -3.52121,6.53333 42.7636,22.63756 42.7636,22.63756 0,0 6.03272,-3.5297 5.53211,-13.08363 z"
     fill="#696880"
     id="path110"
     style="stroke-width:0.848484" />
  <path
     d="m 797.71478,489.45265 a 24.512708,24.512708 0 0 0 23.9527,-3.22423 47.744204,47.744204 0 0 1 10.68242,-6.18545 c 5.32848,-2.15515 11.71756,-3.75878 13.6606,-0.14425 3.5212,6.53333 -42.7636,22.63756 -42.7636,22.63756 0,0 -6.03273,-3.5297 -5.53212,-13.08363 z"
     fill="#696880"
     id="path112"
     style="stroke-width:0.848484" />
  <path
     d="m 712.04333,282.95707 c -0.19516,1.74787 -0.76364,3.63999 -2.25696,4.57332 -1.22183,0.76364 -2.76606,0.69576 -4.17455,0.99273 a 9.7066588,9.7066588 0 0 0 -6.64363,5.73575 14.865443,14.865443 0 0 0 -0.62788,8.95152 32.96361,32.96361 0 0 0 1.28122,4.30181 c 1.48484,4.17454 3.26666,8.30666 6.01574,11.78545 a 50.060565,50.060565 0 0 0 7.89091,7.43271 c 1.7903,1.45939 3.64,2.95273 5.84605,3.64 a 18.123621,18.123621 0 0 0 4.5903,0.60243 c 1.90909,0.0934 3.93697,0.15272 5.59151,-0.79758 2.54546,-1.46788 3.30909,-4.71757 4.68364,-7.31393 1.17939,-2.21455 2.92726,-4.08122 4.02181,-6.33818 a 25.267859,25.267859 0 0 0 1.69697,-5.52363 l 2.3503,-10.44484 c 0.84848,-3.78424 1.62909,-8.0606 -0.50909,-11.3103 a 1.7818168,1.7818168 0 0 0 -0.62787,-0.65333 2.3333314,2.3333314 0 0 0 -1.28122,-0.13575 13.847261,13.847261 0 0 1 -7.76363,-1.77334 3.0715127,3.0715127 0 0 1 -0.97575,-0.76364 3.8436333,3.8436333 0 0 1 -0.60243,-1.79029 18.912712,18.912712 0 0 0 -1.08606,-3.78425 2.5454525,2.5454525 0 0 0 -0.73818,-1.12848 2.6387857,2.6387857 0 0 0 -1.18787,-0.39879 97.142951,97.142951 0 0 0 -10.97091,-1.15393 c -1.21333,-0.0509 -3.02909,-0.53455 -3.85211,0.52606 -0.82303,1.0606 -0.53455,3.49575 -0.67031,4.76848 z"
     fill="#fbbebe"
     id="path114"
     style="stroke-width:0.848484" />
  <path
     d="m 712.04333,282.95707 c -0.19516,1.74787 -0.76364,3.63999 -2.25696,4.57332 -1.22183,0.76364 -2.76606,0.69576 -4.17455,0.99273 a 9.7066588,9.7066588 0 0 0 -6.64363,5.73575 14.865443,14.865443 0 0 0 -0.62788,8.95152 32.96361,32.96361 0 0 0 1.28122,4.30181 c 1.48484,4.17454 3.26666,8.30666 6.01574,11.78545 a 50.060565,50.060565 0 0 0 7.89091,7.43271 c 1.7903,1.45939 3.64,2.95273 5.84605,3.64 a 18.123621,18.123621 0 0 0 4.5903,0.60243 c 1.90909,0.0934 3.93697,0.15272 5.59151,-0.79758 2.54546,-1.46788 3.30909,-4.71757 4.68364,-7.31393 1.17939,-2.21455 2.92726,-4.08122 4.02181,-6.33818 a 25.267859,25.267859 0 0 0 1.69697,-5.52363 l 2.3503,-10.44484 c 0.84848,-3.78424 1.62909,-8.0606 -0.50909,-11.3103 a 1.7818168,1.7818168 0 0 0 -0.62787,-0.65333 2.3333314,2.3333314 0 0 0 -1.28122,-0.13575 13.847261,13.847261 0 0 1 -7.76363,-1.77334 3.0715127,3.0715127 0 0 1 -0.97575,-0.76364 3.8436333,3.8436333 0 0 1 -0.60243,-1.79029 18.912712,18.912712 0 0 0 -1.08606,-3.78425 2.5454525,2.5454525 0 0 0 -0.73818,-1.12848 2.6387857,2.6387857 0 0 0 -1.18787,-0.39879 97.142951,97.142951 0 0 0 -10.97091,-1.15393 c -1.21333,-0.0509 -3.02909,-0.53455 -3.85211,0.52606 -0.82303,1.0606 -0.53455,3.49575 -0.67031,4.76848 z"
     opacity="0.1"
     id="path116"
     style="stroke-width:0.848484" />
  <path
     d="m 705.23,288.96433 a 23.27392,23.27392 0 0 0 -6.05817,-0.95878 c -4.85333,-0.11879 -10.03757,1.56121 -12.84605,5.52363 a 13.041202,13.041202 0 0 0 -1.94303,9.71514 20.117559,20.117559 0 0 0 4.41212,9.05332 27.210887,27.210887 0 0 1 3.39393,4.44607 c 1.34061,2.54545 1.37454,5.58302 1.69697,8.48484 0.84848,6.8812 3.78424,13.36362 4.95515,20.20241 1.17091,6.83877 0.15273,14.78058 -5.25212,19.14179 -0.90788,0.72971 -2.00242,1.49334 -2.07879,2.65576 -0.12727,1.85818 2.29091,2.65576 4.1491,2.82546 5.55756,0.53454 11.25938,1.05211 16.65574,-0.38183 2.23999,-0.59393 4.38666,-1.51878 6.6606,-1.94302 5.77817,-1.07758 11.58181,1.12848 17.35149,2.19757 a 77.899331,77.899331 0 0 0 12.6509,1.02666 6.7878733,6.7878733 0 0 0 2.91879,-0.38181 2.3333314,2.3333314 0 0 0 1.47637,-2.32484 3.9369665,3.9369665 0 0 0 -1.00122,-1.69698 c -2.91878,-3.61454 -3.80969,-8.39999 -4.60727,-12.97331 l -2.63029,-15.39999 c -1.43394,-8.21333 -2.76607,-17.1309 1.11999,-24.51271 2.8,-5.30303 7.94181,-9.03636 10.89454,-14.25454 a 8.3066599,8.3066599 0 0 0 1.3406,-5.35394 c -0.44121,-2.62181 -2.80848,-4.49696 -5.23515,-5.59998 a 19.693317,19.693317 0 0 0 -14.75513,-0.53456 c 0.0849,3.67395 -0.84849,7.39031 -1.45939,11.0303 l -1.02667,5.93939 a 75.625394,75.625394 0 0 1 -2.29091,10.3515 11.216961,11.216961 0 0 1 -1.84121,3.75031 9.698174,9.698174 0 0 1 -3.2497,2.36727 19.311499,19.311499 0 0 1 -8.61211,1.96 11.301809,11.301809 0 0 1 -3.80121,-0.57698 c -2.01938,-0.72969 -3.65696,-2.2315 -5.23515,-3.6909 a 8.5527203,8.5527203 0 0 1 -1.38303,-1.49333 9.002417,9.002417 0 0 1 -0.94181,-2.26546 46.064205,46.064205 0 0 1 -1.61212,-6.34665 c -0.26303,-1.64607 -0.3394,-3.31758 -0.45818,-4.98061 -0.37334,-4.81938 -0.36485,-10.27514 -1.35758,-15.0012 z"
     fill="#f2f2f2"
     id="path118"
     style="stroke-width:0.848484" />
  <path
     d="m 700.12213,386.32789 c 0,0 -2.0109,26.65937 10.56362,31.19028 12.57454,4.5309 1.5103,-22.13696 1.5103,-22.13696 l -4.02181,-8.05211 z"
     fill="#fbbebe"
     id="path120"
     style="stroke-width:0.848484" />
  <path
     d="m 742.88573,386.32789 c 0,0 2.01091,26.65937 -10.56363,31.19028 -12.57454,4.5309 -1.5103,-22.13696 -1.5103,-22.13696 l 4.02182,-8.05211 z"
     fill="#fbbebe"
     id="path122"
     style="stroke-width:0.848484" />
  <path
     d="m 689.05789,297.28796 -4.02181,6.54182 c 0,0 3.52121,22.63755 4.02181,26.65936 a 52.47026,52.47026 0 0 0 2.01091,8.53575 c 0,0 0.50061,12.07394 0.50061,16.59636 0,4.52242 2.54545,12.07393 2.54545,12.07393 a 54.752683,54.752683 0 0 0 2.54545,12.57453 c 2.01091,5.5406 4.0303,12.07393 4.0303,12.07393 0,0 2.54545,-7.04241 12.57454,3.52121 a 6.1006011,6.1006011 0 0 0 0,-8.55272 c 0,0 -3.02061,-13.57574 -3.02061,-20.61816 0,-7.04242 -5.53211,-40.72724 -5.53211,-40.72724 0,0 -3.58061,-38.24119 -15.65454,-28.67877 z"
     opacity="0.1"
     id="path124"
     style="stroke-width:0.848484" />
  <path
     d="m 688.06516,296.78736 -4.02181,6.53332 c 0,0 3.52122,22.63756 4.02181,26.66787 a 52.818139,52.818139 0 0 0 2.0194,8.54422 c 0,0 0.52607,12.07394 0.52607,16.61333 0,4.53939 2.54545,12.07392 2.54545,12.07392 a 54.998743,54.998743 0 0 0 2.54545,12.57454 c 2.01091,5.53212 4.02181,12.07393 4.02181,12.07393 0,0 2.54546,-7.04242 12.57453,3.52121 a 6.0921163,6.0921163 0 0 0 0,-8.55272 c 0,0 -3.0206,-13.57575 -3.0206,-20.62665 0,-7.0509 -5.53211,-40.72724 -5.53211,-40.72724 0,0 -3.62303,-38.21572 -15.68,-28.69573 z"
     fill="#f2f2f2"
     id="path126"
     style="stroke-width:0.848484" />
  <path
     d="m 754.45057,293.25767 2.54545,2.99515 c 0,0 2.96969,17.13089 -3.57211,38.75875 l -2.01091,19.62544 c 0,0 -3.52121,16.59635 -4.0303,20.62664 -0.5091,4.0303 -0.50061,4.52243 -1.50182,6.03272 a 1.9345438,1.9345438 0 0 0 0,2.54547 l -3.02061,11.07271 c 0,0 -4.5309,-5.53211 -13.57574,1.5103 0,0 -2.54545,-4.0303 -0.50061,-7.55151 2.04485,-3.5212 2.01091,-5.0315 1.5103,-6.03272 -0.5006,-1.00121 2.01091,-6.04121 2.01091,-7.04241 0,-1.00122 3.52122,-24.14787 3.52122,-24.14787 0,0 1.5103,-22.63755 3.0206,-30.18058 0.92484,-4.64121 0.89939,-14.99271 0.74666,-22.27271 -0.16121,-7.57696 9.0109,-11.69211 14.42424,-6.35515 0.14424,0.11031 0.28848,0.26304 0.43272,0.41577 z"
     opacity="0.1"
     id="path128"
     style="stroke-width:0.848484" />
  <path
     d="m 755.9439,292.25645 2.54545,2.99515 c 0,0 2.96121,17.12241 -3.57212,38.75876 l -2.0109,19.61695 c 0,0 -3.52121,16.60484 -4.03031,20.62665 -0.50908,4.02182 -0.50059,4.53091 -1.5103,6.03272 a 1.9599984,1.9599984 0 0 0 0,2.54545 l -3.01211,11.0303 c 0,0 -4.53091,-5.53212 -13.57575,1.5103 0,0 -2.54546,-4.02182 -0.5006,-7.54302 2.04484,-3.52121 2.01091,-5.03151 1.50181,-6.04121 -0.50909,-1.0097 2.0194,-6.03273 2.0194,-7.04242 0,-1.00969 3.5212,-24.14786 3.5212,-24.14786 0,0 1.5103,-22.63755 3.01213,-30.18058 1.50181,-7.54302 0.50908,-30.18058 0.50908,-30.18058 0,0 8.07758,-5.51514 15.10302,2.01939 z"
     fill="#f2f2f2"
     id="path130"
     style="stroke-width:0.848484" />
  <circle
     cx="722.25909"
     cy="265.08798"
     fill="#fbbebe"
     id="circle132"
     r="20.126043"
     style="stroke-width:0.848484" />
  <path
     d="m 732.75483,234.87347 a 14.084837,14.084837 0 0 1 -26.37937,0.37333 c 7.84847,-3.15636 15.88362,-0.3394 15.88362,-0.3394 3.98788,-1.41696 7.48363,-1.2812 10.49575,-0.034 z"
     opacity="0.1"
     id="path134"
     style="stroke-width:0.848484" />
  <path
     d="m 722.25908,235.91711 c 0,0 -38.7333,-13.57575 -29.17937,52.31753 0,0 8.55272,5.53211 15.09453,2.0109 0,0 -4.5309,-45.81814 13.07515,-43.76481 17.60604,2.05334 14.59392,42.75512 14.59392,42.75512 0,0 10.06302,3.0206 13.07515,-2.54545 3.01211,-5.56606 -1.00122,-59.8351 -26.65938,-50.77329 z"
     fill="#ff6584"
     id="path136"
     style="stroke-width:0.848484" />
  <path
     d="m 721.24939,243.46013 c -12.08242,-1.38303 -13.73696,19.73574 -13.57575,33.1333 0.15272,-13.31271 2.39272,-31.39391 13.57575,-30.1127 12.57453,1.43394 14.62786,22.6121 14.78058,34.60967 0.13577,-11.00484 -1.06908,-36.06058 -14.78058,-37.63027 z"
     opacity="0.1"
     id="path138"
     style="stroke-width:0.848484" />
  <path
     d="m 693.07971,285.21404 a 136.76716,136.76716 0 0 1 -1.50181,-17.46181 129.16474,129.16474 0 0 0 1.50181,20.44847 c 0,0 8.55272,5.53211 15.09453,2.01091 0,0 -0.1103,-1.08606 -0.22909,-2.91031 -6.50787,3.36001 -14.86544,-2.08726 -14.86544,-2.08726 z"
     opacity="0.1"
     id="path140"
     style="stroke-width:0.848484" />
  <path
     d="m 748.91846,283.70373 c -2.80849,5.1503 -11.72606,2.89333 -12.9394,2.54546 -0.0594,1.86665 -0.13575,2.97818 -0.13575,2.97818 0,0 10.06302,3.02059 13.07515,-2.54546 0.62787,-1.14545 0.95029,-4.3612 0.84847,-8.66303 -0.0849,2.80849 -0.38181,4.82788 -0.84847,5.68485 z"
     opacity="0.1"
     id="path142"
     style="stroke-width:0.848484" />
  <path
     d="m 852.06867,609.30104 c 2.32485,-4.30181 -0.31393,-9.57938 -3.34303,-13.41453 -3.02909,-3.83515 -6.72847,-7.83151 -6.65211,-12.72727 0.11879,-7.02544 7.57697,-11.17453 13.57574,-14.89938 a 66.130856,66.130856 0 0 0 12.15878,-9.77454 17.996349,17.996349 0 0 0 3.73333,-4.99757 c 1.2303,-2.74909 1.19637,-5.87999 1.12,-8.89211 q -0.38182,-15.04363 -1.48484,-30.06179"
     fill="none"
     stroke="#3f3d56"
     stroke-miterlimit="10"
     stroke-width="3.39394"
     id="path144" />
  <path
     d="m 882.46138,513.99082 a 10.945445,10.945445 0 0 0 -5.47273,-8.98545 l -2.45212,4.85333 0.0763,-5.87999 a 11.098173,11.098173 0 0 0 -3.61455,-0.43273 10.962416,10.962416 0 1 0 11.46303,10.44484 z"
     fill="#8d99ae"
     id="path146"
     style="stroke-width:0.848484" />
  <path
     d="m 862.9123,588.19076 a 10.962416,10.962416 0 0 1 -20.69453,-4.49697 10.818173,10.818173 0 0 1 0.71273,-4.45454 10.9709,10.9709 0 0 1 20.51634,0.11879 l -6.84726,5.57454 7.52605,-1.74788 a 10.852112,10.852112 0 0 1 -1.21333,5.00606 z"
     fill="#8d99ae"
     id="path148"
     style="stroke-width:0.848484" />
  <path
     d="m 857.49897,566.90229 a 10.962416,10.962416 0 0 1 -11.46302,-10.44484 10.818173,10.818173 0 0 1 0.9503,-4.98908 11.030294,11.030294 0 0 1 7.03394,-6.07516 l -0.0509,4.52242 2.47757,-4.9212 v 0 a 10.962416,10.962416 0 0 1 11.45453,10.44484 10.750294,10.750294 0 0 1 -0.46666,3.74181 10.962416,10.962416 0 0 1 -9.93575,7.72121 z"
     fill="#8d99ae"
     id="path150"
     style="stroke-width:0.848484" />
  <path
     d="m 884.11592,549.19443 a 10.962416,10.962416 0 0 1 -11.46302,-10.44484 10.775749,10.775749 0 0 1 1.03514,-5.19273 10.95393,10.95393 0 0 1 15.27272,-4.87878 l -1.93455,5.30302 3.9794,-3.82666 a 10.95393,10.95393 0 0 1 3.54666,7.56848 10.750294,10.750294 0 0 1 -0.27999,3.0206 10.962416,10.962416 0 0 1 -10.15636,8.45091 z"
     fill="#8d99ae"
     id="path152"
     style="stroke-width:0.848484" />
  <path
     d="m 880.9935,516.9096 c -2.54546,0.28 -4.99758,1.06061 -7.53454,1.22182 -2.53697,0.16121 -5.32848,-0.4497 -6.93212,-2.42666 a 34.168457,34.168457 0 0 1 -2.02787,-3.56364 7.873933,7.873933 0 0 0 -2.75758,-2.60484 10.835143,10.835143 0 0 0 -1.17939,5.47272 10.962416,10.962416 0 0 0 21.67028,1.80727 c -0.41575,0.0169 -0.83151,0.0509 -1.23878,0.0934 z"
     opacity="0.1"
     id="path154"
     style="stroke-width:0.848484" />
  <path
     d="m 884.11592,549.19443 a 10.962416,10.962416 0 0 1 -11.46302,-10.44484 10.775749,10.775749 0 0 1 1.03514,-5.19273 8.1454479,8.1454479 0 0 1 2.20606,2.20606 c 0.78062,1.1794 1.24728,2.54545 2.17212,3.62303 1.69698,2.00242 4.62425,2.66424 7.27152,2.54545 2.64727,-0.11879 5.19272,-0.84849 7.8315,-1.11151 0.36485,0 0.73818,-0.0594 1.10304,-0.0679 a 10.962416,10.962416 0 0 1 -10.15636,8.44242 z"
     opacity="0.1"
     id="path156"
     style="stroke-width:0.848484" />
  <path
     d="m 857.49897,566.90229 a 10.962416,10.962416 0 0 1 -11.46302,-10.44484 10.818173,10.818173 0 0 1 0.9503,-4.98908 9.0363563,9.0363563 0 0 1 2.29091,2.22302 c 0.84848,1.20485 1.38303,2.54545 2.37576,3.69939 1.84969,2.06182 4.96363,2.78303 7.76362,2.72363 2.8,-0.0594 5.32849,-0.72969 8.02667,-0.93333 a 10.962416,10.962416 0 0 1 -9.94424,7.72121 z"
     opacity="0.1"
     id="path158"
     style="stroke-width:0.848484" />
  <path
     d="m 862.9123,588.19076 a 10.962416,10.962416 0 0 1 -20.69453,-4.49697 10.818173,10.818173 0 0 1 0.71273,-4.45454 11.030294,11.030294 0 0 1 2.40121,2.14666 c 1.04363,1.27273 1.69697,2.71515 2.93575,3.89455 2.24,2.20605 5.86303,3.11394 9.07879,3.19878 a 48.363597,48.363597 0 0 0 5.56605,-0.28848 z"
     opacity="0.1"
     id="path160"
     style="stroke-width:0.848484" />
  <path
     d="m 835.5402,604.34589 c 0,0 8.64605,-0.26302 11.25939,-2.1212 2.61332,-1.85819 13.30422,-4.07273 13.95756,-1.09455 0.65333,2.97818 12.99878,14.81454 3.23272,14.89089 -9.76605,0.0763 -22.69695,-1.51878 -25.30179,-3.10544 -2.60485,-1.58667 -3.14788,-8.5697 -3.14788,-8.5697 z"
     fill="#656380"
     id="path162"
     style="stroke-width:0.848484" />
  <path
     d="m 864.15957,614.98588 c -9.76605,0.0764 -22.69695,-1.52726 -25.30179,-3.10544 -1.97697,-1.21334 -2.76607,-5.5406 -3.0291,-7.54303 h -0.28848 c 0,0 0.54303,6.98302 3.14788,8.56969 2.60484,1.58666 15.53574,3.18182 25.30179,3.10545 2.81697,0 3.79273,-1.02667 3.74182,-2.54545 -0.3903,0.94182 -1.48485,1.50182 -3.57212,1.51878 z"
     opacity="0.2"
     id="path164"
     style="stroke-width:0.848484" />
  <metadata
     id="metadata987">
    <rdf:RDF>
      <cc:Work
         rdf:about="">
        <dc:title>fast car</dc:title>
      </cc:Work>
    </rdf:RDF>
  </metadata>
</svg>
