<?xml version="1.0" encoding="UTF-8" standalone="no"?>
<svg
   data-name="Layer 1"
   width="900"
   height="700"
   viewBox="0 0 899.99997 700"
   version="1.1"
   id="svg27"
   sodipodi:docname="undraw_personal_information_re_vw8a.svg"
   inkscape:version="1.1.1 (3bf5ae0d25, 2021-09-20)"
   xmlns:inkscape="http://www.inkscape.org/namespaces/inkscape"
   xmlns:sodipodi="http://sodipodi.sourceforge.net/DTD/sodipodi-0.dtd"
   xmlns="http://www.w3.org/2000/svg"
   xmlns:svg="http://www.w3.org/2000/svg">
  <defs
     id="defs31" />
  <sodipodi:namedview
     id="namedview29"
     pagecolor="#ffffff"
     bordercolor="#111111"
     borderopacity="1"
     inkscape:pageshadow="0"
     inkscape:pageopacity="0"
     inkscape:pagecheckerboard="1"
     showgrid="false"
     width="900px"
     inkscape:zoom="0.75497435"
     inkscape:cx="390.74175"
     inkscape:cy="362.26396"
     inkscape:window-width="1920"
     inkscape:window-height="1027"
     inkscape:window-x="1272"
     inkscape:window-y="42"
     inkscape:window-maximized="1"
     inkscape:current-layer="svg27" />
  <path
     d="m 897.8898,365.03378 c 0,121.28016 -76.86934,224.6156 -184.53771,263.93567 a 277.80635,277.80635 0 0 1 -50.4975,13.25424 282.81499,282.81499 0 0 1 -141.07191,-12.81158 C 413.43304,590.41552 336.00173,486.73106 336.05286,364.97419 c 0,-155.08402 125.77486,-280.858884 280.91847,-280.858884 a 279.69567,279.69567 0 0 1 163.45221,52.438114 c 71.12322,50.95692 117.46626,134.30456 117.46626,228.48036 z"
     fill="#e5e5e5"
     id="path2"
     style="stroke-width:0.851268" />
  <path
     d="m 713.35205,628.96944 a 277.80635,277.80635 0 0 1 -50.4975,13.25424 282.81499,282.81499 0 0 1 -141.07191,-12.81158 l 12.97311,-52.05504 0.78309,-3.12416 26.47453,0.10215 133.00233,0.47671 1.70253,5.031 z"
     fill="#2f2e41"
     id="path4"
     style="stroke-width:0.851268" />
  <rect
     id="effaf695-3865-40c6-8918-ced0238239c2"
     data-name="Rectangle 25"
     width="244.01685"
     height="276.11307"
     fill="#e6e6e6"
     x="3.3245482"
     y="46.359192"
     style="stroke-width:0.851268" />
  <rect
     id="f33d627f-c769-4bde-9d74-ef156faf640e"
     data-name="Rectangle 25-2"
     x="7.6753798"
     y="52.2006"
     width="234.88872"
     height="264.43109"
     fill="#ffffff"
     style="stroke-width:0.851268" />
  <circle
     id="b5fd4af9-5b07-4da2-8ccf-5b3d4ac887f6"
     data-name="Ellipse 116"
     cx="125.3334"
     cy="294.0629"
     r="13.166564"
     fill="#e6e6e6"
     style="stroke-width:0.851268" />
  <rect
     id="f05405a0-af73-4807-bbd1-d761cdd06c65"
     data-name="Rectangle 31"
     x="47.484928"
     y="145.80348"
     width="75.6241"
     height="7.7363248"
     fill="#e6e6e6"
     style="stroke-width:0.851268" />
  <rect
     id="a05e4a04-50b7-46b0-b842-8db21044ae7a"
     data-name="Rectangle 32"
     x="47.484928"
     y="168.98605"
     width="114.13717"
     height="7.7363248"
     fill="#8d99ae"
     style="stroke-width:0.851268" />
  <rect
     id="bdce3bac-3998-4a72-bc14-4aa79023038d"
     data-name="Rectangle 38"
     x="47.484928"
     y="192.31424"
     width="102.93363"
     height="7.7363248"
     fill="#e6e6e6"
     style="stroke-width:0.851268" />
  <rect
     id="e1177af0-2f80-4461-b67e-43945f3b6fee"
     data-name="Rectangle 39"
     x="47.484928"
     y="215.02606"
     width="158.95134"
     height="7.7363248"
     fill="#8d99ae"
     style="stroke-width:0.851268" />
  <rect
     id="b290cdc3-2096-427b-bfd4-6b657da823ea"
     data-name="Rectangle 40"
     x="49.137234"
     y="236.65593"
     width="129.54172"
     height="7.7363248"
     fill="#e6e6e6"
     style="stroke-width:0.851268" />
  <g
     id="b96c6486-fa38-4cba-8e5e-13dca7f44a0c"
     data-name="Group 52"
     transform="matrix(0.85126809,0,0,0.85126809,3.3245483,46.359191)">
    <path
       id="b0fbfc35-67c9-42b4-b2fe-33d0d7288754-294"
       data-name="Path 846"
       d="m 482.17805,625.61438 a 29.75626,29.75626 0 0 1 2.991,3.6 l 140.109,-3.428 16.345,-29.868 48.3,18.776 -23.8,55.687 a 22.609,22.609 0 0 1 -23.5,13.561 l -158.3,-19.123 a 29.665,29.665 0 1 1 -2.15,-39.211 z"
       transform="translate(-74.56905,-97.82358)"
       fill="#9f616a" />
    <path
       id="a6a8f1c9-3ab8-4f6f-ba9b-45acc2f7af89-295"
       data-name="Path 852"
       d="m 670.75807,455.06457 65.569,-21.489 19.258,-26.411 93.716,5.546 13.759,30.82 49.972,23.613 -7.68,142.624 -13.138,133.477 c -67.558,-34.983 -193.63907,-8.31221 -194.74307,-7.87819 z"
       transform="translate(-74.56905,-97.82358)"
       fill="#8d99ae" />
    <path
       id="fc06e97d-785e-4845-9aa0-60a5889f9ce3-296"
       data-name="Path 853"
       d="m 684.775,648.11407 -66.694,-26.684 0.284,-1.187 c 0.286,-1.2 28.672,-119.817 32.441,-138.879 3.926,-19.859 18.271,-25.35 18.88,-25.573 l 0.445,-0.164 26.394,8.034 11.592,91.081 z"
       transform="translate(-74.56905,-97.82358)"
       fill="#8d99ae" />
    <path
       id="b248559b-61d8-49e2-8eef-81cc9521c19e-297"
       data-name="Path 855"
       d="m 828.7801,737.37719 a 29.72053,29.72053 0 0 1 4.677,0.258 l 92.747,-105.072 -10.788,-32.286 46.608,-22.652 24.655,55.313 a 22.608,22.608 0 0 1 -6.034,26.453 l -121.65,103.073 a 29.6649,29.6649 0 1 1 -30.215,-25.087 z"
       transform="translate(-74.56905,-97.82358)"
       fill="#9f616a" />
    <path
       id="b0e9bc84-32e8-4599-bd8d-d35670d3692b-298"
       data-name="Path 856"
       d="m 918.801,642.79113 -38.689,-91.006 15.09,-63.391 16.259,-20.541 a 9.36609,9.36609 0 0 1 7.524,0.07 c 6,2.413 11.1,9.81 15.177,21.984 l 36.259,103.279 z"
       transform="translate(-74.56905,-97.82358)"
       fill="#8d99ae" />
    <path
       id="b58b0f1b-b11b-4f57-8de2-a939101b4938-299"
       data-name="Path 857"
       d="m 718.072,373.4422 v -68.61 a 91.938005,91.938005 0 1 1 183.875,-0.60916 q 10e-4,0.30455 0,0.60916 v 68.61 a 12.364,12.364 0 0 1 -12.35,12.35 H 730.422 a 12.364,12.364 0 0 1 -12.35,-12.35 z"
       transform="translate(-74.56905,-97.82358)"
       fill="#2f2e41" />
    <circle
       id="ba54abe3-4119-45e5-b5c1-150877d750f7"
       data-name="Ellipse 148"
       cx="716.54791"
       cy="218.96507"
       r="67.404999"
       fill="#9f616a" />
    <path
       id="b6bcc4bf-1738-426f-8fbf-3ee273a728b5-300"
       data-name="Path 858"
       d="m 696.322,310.32116 a 72.809,72.809 0 0 1 72.727,-72.727 h 13.723 a 72.808,72.808 0 0 1 72.726,72.727 v 1.372 h -29 l -9.891,-27.7 -1.978,27.7 h -14.986 l -4.99,-13.974 -1,13.974 h -97.331 z"
       transform="translate(-74.56905,-97.82358)"
       fill="#2f2e41" />
    <path
       id="be96ad09-85ff-4345-abef-5a49918f7c18-301"
       data-name="Path 859"
       d="m 784.484,393.508 a 12.16709,12.16709 0 0 1 -0.967,-12.918 c 14.541,-27.658 34.9,-78.765 7.877,-110.283 l -1.938,-2.262 h 78.456 v 117.79 l -71.271,12.575 a 12.60771,12.60771 0 0 1 -2.185,0.193 12.3,12.3 0 0 1 -9.967,-5.092 z"
       transform="translate(-74.56905,-97.82358)"
       fill="#2f2e41" />
  </g>
  <g
     id="b2dad932-78e1-44e1-9682-073c8202f887"
     data-name="Group 51"
     transform="matrix(0.85126809,0,0,0.85126809,3.3245483,46.359191)">
    <path
       id="e043db59-b600-449e-8c52-e1eb73379667-302"
       data-name="Path 341"
       d="M 217.64577,123.08567 A 32.89091,32.89091 0 1 0 250.535,155.9783 v -0.002 a 32.89088,32.89088 0 0 0 -32.89091,-32.89091 z m 0,9.86638 a 9.8664,9.8664 0 1 1 -9.86636,9.86644 v 0 a 9.86643,9.86643 0 0 1 9.86636,-9.86644 z m 0,47.50128 a 23.961,23.961 0 0 1 -19.73454,-10.53178 c 0.15847,-6.57819 13.15636,-10.1991 19.73454,-10.1991 6.57818,0 19.57608,3.62091 19.73455,10.1991 a 23.99974,23.99974 0 0 1 -19.73455,10.53178 z"
       transform="translate(-74.56905,-97.82358)"
       fill="#8d99ae" />
  </g>
  <path
     id="bcfa45dc-2c5a-4ac5-8376-9a2a23e225d0-303"
     data-name="Path 842"
     d="m 125.44663,299.11005 c 11.53468,-21.13784 39.16684,-34.52403 61.77056,-22.45815 10.17436,5.43024 18.26226,15.03594 20.82968,26.38931 2.97944,13.18869 -3.29866,25.76448 -9.77936,36.84458 -3.51744,6.01421 -7.37199,11.90584 -10.28332,18.24949 -3.01434,6.56923 -5.1689,14.16169 -2.89942,21.30809 2.04304,6.43814 7.16597,11.12097 12.77583,14.56264 a 95.19583,95.19583 0 0 0 19.63109,8.76806 115.5534,115.5534 0 0 0 43.82754,5.6703 119.86087,119.86087 0 0 0 21.84354,-3.53106 c 7.61289,-1.94089 15.08362,-4.40105 22.70928,-6.29938 12.73156,-3.16246 27.24824,-4.73476 39.32092,1.61741 11.72878,6.17339 16.97769,19.08458 18.60106,31.64504 2.99817,23.19365 -6.19808,47.2624 -22.80206,63.5046 -7.96617,7.7925 -17.9907,14.23065 -28.90907,16.86447 -9.52654,2.29842 -21.75926,2.15115 -29.34066,-4.97056 -8.4599,-7.94829 -6.46963,-20.69347 0.24943,-29.07931 8.57652,-10.69959 23.10597,-13.26957 36.07163,-13.53006 14.74907,-0.29624 29.48452,1.90003 44.22508,0.5346 a 67.930343,67.930343 0 0 0 20.91395,-5.04462 52.997908,52.997908 0 0 0 15.76123,-10.66554 c 9.10006,-8.84127 15.2377,-20.61941 18.2895,-32.86575 3.67492,-14.72694 2.87388,-30.2047 0.0213,-44.99718 a 202.90893,202.90893 0 0 0 -5.86353,-22.56457 c -0.98492,-3.12415 -5.91802,-1.78766 -4.92544,1.35778 8.78508,27.85689 13.68328,60.06803 -3.29015,85.9321 a 51.16741,51.16741 0 0 1 -30.59713,22.02486 c -14.69034,3.65109 -30.1051,1.8464 -45.03975,1.3033 -14.20085,-0.51672 -29.79438,0.0409 -41.96751,8.31178 -9.98623,6.78375 -16.97088,19.68727 -13.95229,31.86892 2.91049,11.7475 14.20001,17.70638 25.49123,18.62404 11.84709,0.96534 23.50521,-3.01093 33.45483,-9.22859 20.69688,-12.93332 34.45848,-35.6792 37.33832,-59.79478 1.50079,-12.56557 -0.0264,-26.10073 -5.72477,-37.50602 a 36.717883,36.717883 0 0 0 -13.49005,-15.03424 c -5.79714,-3.55405 -12.49321,-5.3034 -19.21823,-5.92228 -15.27856,-1.40714 -29.95783,3.83837 -44.45152,7.85125 a 123.26222,123.26222 0 0 1 -22.66756,4.327 113.20373,113.20373 0 0 1 -22.36452,-0.36435 110.12411,110.12411 0 0 1 -21.67073,-4.80966 86.737996,86.737996 0 0 1 -19.6711,-8.8932 c -5.43535,-3.47573 -10.13605,-8.45394 -10.40335,-15.2377 -0.29028,-7.35581 3.41869,-14.23661 6.94635,-20.43809 6.96933,-12.2506 15.5782,-24.23305 17.39566,-38.57437 1.59187,-12.54513 -3.45615,-24.9098 -12.17313,-33.85748 a 45.773537,45.773537 0 0 0 -33.82684,-14.03316 c -12.93332,0.3703 -25.31672,5.99463 -34.82964,14.63245 a 57.339716,57.339716 0 0 0 -11.7475,14.92273 c -1.57569,2.88665 2.83302,5.46684 4.41042,2.57764 z"
     fill="#3f3d56"
     style="stroke-width:0.851268" />
</svg>
