<?xml version="1.0" encoding="UTF-8" standalone="no"?>
<svg
   id="currentIllo"
   data-name="Layer 1"
   width="900"
   height="700"
   viewBox="0 0 899.99997 699.99999"
   class="injected-svg DownloadModal__ImageFile-sc-p17csy-5 iIfSkb grid_media"
   version="1.1"
   sodipodi:docname="undraw_people_search_re_5rre.svg"
   inkscape:version="1.1.1 (3bf5ae0d25, 2021-09-20)"
   xmlns:inkscape="http://www.inkscape.org/namespaces/inkscape"
   xmlns:sodipodi="http://sodipodi.sourceforge.net/DTD/sodipodi-0.dtd"
   xmlns="http://www.w3.org/2000/svg"
   xmlns:svg="http://www.w3.org/2000/svg">
  <defs
     id="defs4048" />
  <sodipodi:namedview
     id="namedview4046"
     pagecolor="#ffffff"
     bordercolor="#111111"
     borderopacity="1"
     inkscape:pageshadow="0"
     inkscape:pageopacity="0"
     inkscape:pagecheckerboard="1"
     showgrid="false"
     height="700px"
     inkscape:zoom="0.9029697"
     inkscape:cx="476.20645"
     inkscape:cy="301.782"
     inkscape:window-width="1920"
     inkscape:window-height="1027"
     inkscape:window-x="1272"
     inkscape:window-y="42"
     inkscape:window-maximized="1"
     inkscape:current-layer="currentIllo" />
  <path
     id="e846ef3a-3b5e-448c-8d47-a4173376229f-250"
     data-name="Path 461"
     d="m 740.12764,644.74475 a 22.728,22.728 0 0 1 -21.947,-3.866 c -7.687,-6.452 -10.1,-17.081 -12.058,-26.924 l -5.8,-29.112 12.143,8.362 c 8.733,6.013 17.662,12.219 23.709,20.929 6.047,8.71 8.686,20.6 3.828,30.024"
     fill="#e6e6e6" />
  <path
     id="b0167a87-6d3c-4fe1-a02f-2e6974de103a-251"
     data-name="Path 462"
     d="m 739.08963,679.99073 c 1.229,-8.953 2.493,-18.02 1.631,-27.069 -0.766,-8.036 -3.217,-15.885 -8.209,-22.321 a 37.13174,37.13174 0 0 0 -9.527,-8.633 c -0.953,-0.6 -1.829,0.909 -0.881,1.507 a 35.3,35.3 0 0 1 13.963,16.847 c 3.04,7.732 3.528,16.161 3,24.374 -0.317,4.967 -0.988,9.9 -1.665,14.83 a 0.9,0.9 0 0 0 0.61,1.074 0.878,0.878 0 0 0 1.074,-0.61 z"
     fill="#f2f2f2" />
  <path
     d="M 695.07844,531.2907 H 187.04406 V 23.256584 h 508.03438 z"
     fill="#ffffff"
     id="path3941" />
  <path
     d="M 695.07844,531.2907 H 187.04406 V 23.256584 H 695.07844 Z M 194.55019,523.78459 H 687.57228 V 30.762754 H 194.55019 Z"
     fill="#e5e5e5"
     id="path3943" />
  <rect
     x="385.07843"
     y="102.7388"
     width="220"
     height="6.8531199"
     fill="#e5e5e5"
     id="rect3945" />
  <rect
     x="385.07843"
     y="120.55688"
     width="220"
     height="6.8531199"
     fill="#e5e5e5"
     id="rect3947" />
  <rect
     x="385.07843"
     y="138.37498"
     width="220"
     height="6.8531199"
     fill="#e5e5e5"
     id="rect3949" />
  <rect
     x="385.07843"
     y="255.73912"
     width="220"
     height="6.8531199"
     fill="#e5e5e5"
     id="rect3951" />
  <rect
     x="385.07843"
     y="273.55722"
     width="220"
     height="6.8531199"
     fill="#e5e5e5"
     id="rect3953" />
  <rect
     x="385.07843"
     y="291.37531"
     width="220"
     height="6.8531199"
     fill="#e5e5e5"
     id="rect3955" />
  <rect
     x="385.07843"
     y="408.73944"
     width="220"
     height="6.8531199"
     fill="#e5e5e5"
     id="rect3957" />
  <rect
     x="385.07843"
     y="426.55753"
     width="220"
     height="6.8531199"
     fill="#e5e5e5"
     id="rect3959" />
  <rect
     x="385.07843"
     y="444.37561"
     width="220"
     height="6.8531199"
     fill="#e5e5e5"
     id="rect3961" />
  <path
     d="m 297.00706,157.34074 a 73.48452,73.48452 0 0 0 -11.72491,-4.93423 l -0.51555,-5.70369 -20.91078,-2.25289 -2.65757,7.29025 -7.5044,2.81614 a 3.65253,3.65253 0 0 0 -0.76152,0.39664 h -0.008 a 3.71836,3.71836 0 0 0 -1.58656,2.475 3.80137,3.80137 0 0 0 0.0558,1.49137 l 0.39664,1.62622 c 0.571,0.34111 1.15816,0.66638 1.745,0.97572 l 0.373,0.19043 c 0.8568,0.44423 1.72949,0.86465 2.62581,1.25335 0.18243,0.0793 0.38075,0.15866 0.56319,0.238 0.0159,0.008 0.0236,0.008 0.0395,0.0159 0.42066,0.17455 0.84093,0.34111 1.26933,0.49977 a 41.69109,41.69109 0 0 0 4.29952,1.38031 44.21436,44.21436 0 0 0 11.39954,1.49137 c 1.40412,0 2.79236,-0.0635 4.16472,-0.19832 a 44.03857,44.03857 0 0 0 9.2339,-1.86419 c 0.008,0 0.0159,-0.008 0.0236,-0.008 a 43.34123,43.34123 0 0 0 5.54522,-2.19741 c 0.008,-0.008 0.0236,-0.008 0.0318,-0.0158 0.40439,-0.19043 0.79328,-0.39664 1.18992,-0.595 l 0.19019,-0.0952 c 0.31723,-0.16656 0.63485,-0.33316 0.95209,-0.50766 0.79328,-0.43635 1.57068,-0.89641 2.33994,-1.38824 0.21421,-0.127 0.42066,-0.2618 0.63486,-0.40458 0.30136,-0.19833 0.60271,-0.40459 0.89632,-0.61879 -0.73787,-0.47591 -1.50714,-0.92808 -2.30044,-1.35644 z"
     fill="#3f3d56"
     id="path3963" />
  <path
     d="m 257.76331,160.85497 -1.30884,-5.90995 h -3.41909 a 0.81809,0.81809 0 0 0 -0.103,0.008 h -0.008 a 7.40924,7.40924 0 0 0 -3.44271,1.18992 7.62539,7.62539 0 0 0 -1.84027,1.65 c 1.01523,0.76946 2.07035,1.48343 3.15724,2.16564 l 0.0476,0.0238 c 0.3091,0.19043 0.62673,0.38081 0.944,0.56325 0.571,0.34111 1.15816,0.66638 1.745,0.97572 l 0.373,0.19043 c 0.8568,0.44423 1.72949,0.86465 2.62581,1.25335 0.18243,0.0794 0.38075,0.15866 0.56319,0.238 0.0159,0.008 0.0236,0.008 0.0395,0.0159 0.42066,0.17455 0.84093,0.34111 1.26933,0.49977 z"
     fill="#3f3d56"
     id="path3965" />
  <circle
     cx="273.49057"
     cy="125.78382"
     r="15.06012"
     fill="#ffb8b8"
     id="circle3967" />
  <path
     d="m 263.37936,118.44835 c 1.559,1.84494 4.19733,2.36555 6.6311,2.579 a 62.45441,62.45441 0 0 0 16.96025,-1.3849 c 0.34473,3.34141 -0.59521,6.94426 1.3729,9.69292 a 44.99776,44.99776 0 0 0 1.5988,-10.20084 9.76388,9.76388 0 0 0 -0.5651,-4.369 4.01823,4.01823 0 0 0 -3.423,-2.52361 8.57906,8.57906 0 0 1 3.82678,-1.636 l -4.78192,-2.4031 1.228,-1.26072 -8.6574,-0.52978 2.5075,-1.593 a 54.37251,54.37251 0 0 0 -11.39121,-0.35958 9.77843,9.77843 0 0 0 -5.03814,1.40046 c -1.42943,1.02218 -2.25538,3.05378 -1.368,4.55453 a 6.61308,6.61308 0 0 0 -5.03977,3.99885 10.676,10.676 0 0 0 -0.38256,5.13155 36.375,36.375 0 0 0 1.90723,8.06855 z"
     fill="#2f2e41"
     id="path3969" />
  <path
     d="m 315.83937,109.45827 a 44.19307,44.19307 0 1 0 -76.36917,41.98046 c 0.39664,0.49977 0.80916,0.99954 1.22982,1.48343 0.0318,0.0317 0.0554,0.0635 0.0871,0.0952 a 42.86334,42.86334 0 0 0 3.292,3.39522 c 0.30174,0.27768 0.619,0.56325 0.93621,0.833 0.60271,0.53943 1.22169,1.055 1.86429,1.54686 0.25371,0.19832 0.49967,0.39664 0.76152,0.58707 1.01523,0.76946 2.07035,1.48343 3.15724,2.16564 l 0.0476,0.0238 c 0.3091,0.19042 0.62673,0.3808 0.944,0.56324 0.571,0.34111 1.15816,0.66638 1.745,0.97572 l 0.373,0.19043 c 0.8568,0.44424 1.72949,0.86465 2.62581,1.25335 0.18243,0.0794 0.38075,0.15867 0.56319,0.238 0.0159,0.008 0.0236,0.008 0.0395,0.0159 0.42066,0.17454 0.84093,0.3411 1.26933,0.49977 a 41.69345,41.69345 0 0 0 4.29952,1.3803 44.21436,44.21436 0 0 0 11.39954,1.49137 c 1.40412,0 2.79236,-0.0635 4.16472,-0.19832 a 44.03857,44.03857 0 0 0 9.2339,-1.86419 c 0.008,0 0.0159,-0.008 0.0236,-0.008 a 43.33976,43.33976 0 0 0 5.54522,-2.19741 c 0.008,-0.008 0.0236,-0.008 0.0318,-0.0158 0.40439,-0.19043 0.79328,-0.39664 1.18992,-0.595 l 0.19019,-0.0952 c 0.31723,-0.16656 0.63485,-0.33316 0.95209,-0.50766 0.79328,-0.43634 1.57068,-0.89641 2.33994,-1.38824 0.21421,-0.12695 0.42066,-0.2618 0.63486,-0.40458 0.30136,-0.19832 0.60271,-0.40458 0.89632,-0.61879 0.3885,-0.26968 0.7774,-0.54736 1.15816,-0.83293 0.11891,-0.0872 0.246,-0.1745 0.36487,-0.26969 a 44.17746,44.17746 0 0 0 15.00882,-49.72289 z m -16.46831,47.79518 c -0.26184,0.20626 -0.53144,0.40458 -0.80141,0.58706 -0.26185,0.19832 -0.52331,0.3887 -0.79329,0.5632 -0.23008,0.16661 -0.46016,0.32528 -0.698,0.476 l -0.0713,0.0476 c -0.17469,0.119 -0.349,0.23 -0.52369,0.3411 q -0.98772,0.6187 -1.99908,1.18992 l -0.2142,0.119 c -0.30136,0.16661 -0.60271,0.32528 -0.90407,0.48394 -0.0399,0.0238 -0.0875,0.0397 -0.127,0.0634 l -0.0476,0.0238 c -0.38076,0.19832 -0.76965,0.3887 -1.15816,0.57114 a 38.91126,38.91126 0 0 1 -4.62489,1.87218 c -0.20645,0.0714 -0.41252,0.14279 -0.61858,0.20621 a 41.6098,41.6098 0 0 1 -8.742,1.777 c -1.30108,0.119 -2.618,0.18244 -3.94277,0.18244 a 41.21052,41.21052 0 0 1 -10.78056,-1.41206 39.1725,39.1725 0 0 1 -5.29113,-1.79278 c -0.0875,-0.0397 -0.18282,-0.0714 -0.27,-0.11107 -0.0949,-0.0396 -0.18244,-0.0714 -0.2696,-0.11107 -0.0953,-0.0396 -0.18244,-0.0793 -0.27772,-0.1269 -0.74564,-0.32527 -1.48353,-0.68226 -2.20515,-1.05508 l -0.349,-0.18244 c -0.88082,-0.46011 -1.74537,-0.95194 -2.5863,-1.47554 -0.246,-0.15072 -0.49967,-0.30934 -0.73789,-0.476 -0.0631,-0.0396 -0.11891,-0.0793 -0.18244,-0.119 -0.56319,-0.37282 -1.12639,-0.76152 -1.67371,-1.1661 -0.37263,-0.27767 -0.74564,-0.5553 -1.11052,-0.84087 -0.61084,-0.46012 -1.19805,-0.95195 -1.769,-1.45966 -0.30135,-0.25386 -0.595,-0.53149 -0.88043,-0.79328 a 40.306,40.306 0 0 1 -3.189,-3.3 c -0.33312,-0.38081 -0.65849,-0.76157 -0.968,-1.15821 a 3.02208,3.02208 0 0 1 -0.19832,-0.24591 41.77344,41.77344 0 1 1 58.00479,7.322 z"
     fill="#3f3d56"
     id="path3971" />
  <path
     d="m 315.8397,262.45864 a 44.19305,44.19305 0 1 0 -76.36916,41.98041 c 0.39664,0.49977 0.80916,0.99954 1.22943,1.48343 0.0318,0.0317 0.0554,0.0635 0.0872,0.0952 a 42.94478,42.94478 0 0 0 3.29243,3.39527 c 0.30135,0.27763 0.61859,0.5632 0.93582,0.83293 0.60309,0.53943 1.22168,1.05508 1.86429,1.54691 a 43.45061,43.45061 0 0 0 3.91876,2.75266 l 0.0476,0.0238 c 0.88043,0.54737 1.77675,1.055 2.68933,1.539 l 0.37263,0.19038 c 0.8568,0.44424 1.72949,0.86465 2.6258,1.25335 0.18244,0.0794 0.38076,0.15867 0.5632,0.238 0.0159,0.008 0.024,0.008 0.0399,0.0158 a 42.929,42.929 0 0 0 5.56885,1.88007 44.21134,44.21134 0 0 0 11.39915,1.49137 c 1.40412,0 2.79236,-0.0634 4.16472,-0.19832 a 44.03355,44.03355 0 0 0 9.2339,-1.86419 c 0.008,0 0.0159,-0.008 0.0236,-0.008 a 43.31709,43.31709 0 0 0 5.54522,-2.19741 c 0.008,-0.008 0.024,-0.008 0.0318,-0.0158 0.40439,-0.19038 0.79328,-0.39664 1.18992,-0.595 l 0.19057,-0.0952 c 0.31724,-0.1666 0.63447,-0.33321 0.95171,-0.50771 0.79328,-0.43629 1.57068,-0.89641 2.34033,-1.38824 0.2142,-0.127 0.42027,-0.2618 0.63447,-0.40458 0.698,-0.46012 1.38824,-0.952 2.05447,-1.45172 0.11931,-0.0872 0.246,-0.1745 0.36527,-0.26969 a 44.17946,44.17946 0 0 0 15.00881,-49.72284 z"
     fill="#ffffff"
     id="path3973" />
  <circle
     id="f2095780-2301-4cc1-9693-3d089d317ca1"
     data-name="Ellipse 188"
     cx="288.68854"
     cy="288.5777"
     r="6.6230998"
     fill="#2f2e41" />
  <path
     id="fe36a822-bf42-420c-ba8a-fcca90365ca6-252"
     data-name="Path 969"
     d="m 290.53375,282.13707 a 6.6239,6.6239 0 0 1 5.83059,9.76688 6.6215,6.6215 0 1 0 -11.0012,-7.276 6.60732,6.60732 0 0 1 5.17138,-2.49091 z"
     fill="#2f2e41" />
  <circle
     id="e26e4994-e49f-47aa-919e-dc7dee2cb7c3"
     data-name="Ellipse 189"
     cx="276.31174"
     cy="269.10742"
     r="19.456011"
     fill="#2f2e41" />
  <path
     id="ac420ffb-80fa-461b-bc18-228b12874f63-253"
     data-name="Path 970"
     d="m 261.0419,257.0361 a 19.45283,19.45283 0 0 1 26.9636,-2.04033 c -0.15866,-0.1515 -0.31733,-0.30383 -0.48151,-0.45058 a 19.456009,19.456009 0 0 0 -25.96422,28.98283 q 0.0554,0.0496 0.11117,0.0988 c 0.165,0.14676 0.33476,0.28557 0.50374,0.426 a 19.45283,19.45283 0 0 1 -1.132,-27.01677 z"
     fill="#2f2e41" />
  <circle
     id="a12696bc-31d6-40e2-aafc-0c11595f0891"
     data-name="Ellipse 190"
     cx="276.14676"
     cy="275.86777"
     r="12.53066"
     fill="#a0616a" />
  <path
     d="m 298.56996,308.51653 v 4.20438 c -0.76965,0.49183 -1.54705,0.95194 -2.34033,1.38824 -0.31724,0.1745 -0.63447,0.3411 -0.95171,0.50771 l -0.19057,0.0952 c -0.39664,0.19832 -0.78553,0.40458 -1.18992,0.595 -0.008,0.008 -0.024,0.008 -0.0318,0.0158 a 43.31709,43.31709 0 0 1 -5.54522,2.19741 c -0.008,0 -0.0155,0.008 -0.0236,0.008 a 44.03355,44.03355 0 0 1 -9.2339,1.86419 c -1.37236,0.13489 -2.7606,0.19832 -4.16472,0.19832 a 44.2114,44.2114 0 0 1 -11.39915,-1.49137 42.9291,42.9291 0 0 1 -5.56885,-1.88008 c -0.0159,-0.008 -0.024,-0.008 -0.0399,-0.0158 -0.18244,-0.0794 -0.38076,-0.15866 -0.5632,-0.238 -0.89631,-0.3887 -1.769,-0.80911 -2.6258,-1.25335 l -0.37263,-0.19038 c -0.91258,-0.48394 -1.80889,-0.9916 -2.68933,-1.539 l -0.0476,-0.0238 a 43.45061,43.45061 0 0 1 -3.91876,-2.75266 c -0.64261,-0.49183 -1.26119,-1.00748 -1.86429,-1.54691 -0.31723,-0.26973 -0.63447,-0.5553 -0.93582,-0.83293 a 42.9465,42.9465 0 0 1 -3.29243,-3.39527 16.04862,16.04862 0 0 1 0.6031,-2.43538 l 0.008,-0.008 a 3.56229,3.56229 0 0 1 0.16656,-0.39664 3.16442,3.16442 0 0 1 0.15068,-0.33316 c 1.42,-2.65747 3.99042,-3.31591 7.17942,-3.45869 1.80077,-0.0794 3.79171,0.008 5.89422,-0.0159 1.11051,-0.008 2.26054,-0.0476 3.411,-0.15073 7.25844,-0.65839 5.94186,-4.94212 6.26684,-7.2506 0.32537,-2.237 2.34034,-0.3014 2.47513,-0.1745 l 0.008,0.008 a 25.60037,25.60037 0 0 0 13.16854,2.30843 c 0.7774,-0.0952 1.5548,-0.15073 2.3322,-0.1745 2.04672,-0.0238 1.60244,0.5632 0.8967,1.04714 a 8.87215,8.87215 0 0 1 -1.071,0.6029 c 0,0 -0.32537,1.9832 -0.65848,4.95006 -0.31724,2.83991 5.12456,4.17267 5.57659,4.27575 a 0.04827,0.04827 0 0 0 0.0318,0.008 10.92623,10.92623 0 0 1 6.03715,0.15867 h 0.008 a 7.15379,7.15379 0 0 1 4.50591,5.12458 z"
     fill="#8d99ae"
     id="path3980" />
  <path
     d="m 258.00922,313.61732 c 0,0.587 -0.0155,1.15027 -0.0395,1.68175 -0.008,0.31733 -0.0236,0.62667 -0.0395,0.92018 -0.0159,-0.008 -0.024,-0.008 -0.0399,-0.0158 -0.18244,-0.0794 -0.38076,-0.15866 -0.5632,-0.238 -0.89631,-0.3887 -1.769,-0.80911 -2.6258,-1.25335 l -0.37263,-0.19038 c -0.91258,-0.48394 -1.80889,-0.9916 -2.68933,-1.539 0.0236,-0.27767 0.0635,-0.5553 0.103,-0.833 0.0872,-0.61079 0.15881,-1.22958 0.20645,-1.84037 a 25.53057,25.53057 0 0 0 -2.26093,-12.50211 v -0.008 c -0.15881,-0.31734 -0.25371,-0.49183 -0.25371,-0.49183 0,0 2.30819,-1.98321 5.60022,0 a 1.98132,1.98132 0 0 1 0.54771,0.47595 c 1.98324,2.3402 2.52242,10.20955 2.42714,15.83393 z"
     fill="#2f2e41"
     id="path3982" />
  <path
     d="m 294.03222,312.53847 c -0.0318,0.88847 -0.0794,1.81659 -0.13479,2.7606 v 0.008 c -0.008,0.008 -0.024,0.008 -0.0318,0.0158 a 43.31709,43.31709 0 0 1 -5.54522,2.19741 c -0.008,0 -0.0155,0.008 -0.0236,0.008 l -0.0872,-2.22912 -0.008,-0.29351 -0.42027,-10.85208 a 1.82075,1.82075 0 0 1 1.81665,-1.90389 h 4.02179 c 0.19832,0 0.34125,0.40458 0.43654,1.13439 v 0.008 a 68.744,68.744 0 0 1 -0.024,9.14655 z"
     fill="#2f2e41"
     id="path3984" />
  <path
     id="e6a5f050-bb79-4898-9f1b-a16710d0980e-254"
     data-name="Path 975"
     d="m 265.42954,260.20443 v 12.53383 h 2.90183 l 3.69275,-3.95689 -0.4942,3.95689 h 12.82733 l -0.79328,-3.95689 1.58656,3.95689 h 2.04509 v -12.53383 z"
     fill="#2f2e41" />
  <ellipse
     id="bcc9b546-fa99-40e5-8b80-3cc98cb6450e"
     data-name="Ellipse 191"
     cx="263.45108"
     cy="273.2301"
     rx="0.98922002"
     ry="1.81344"
     fill="#a0616a" />
  <ellipse
     id="aac24dc1-8688-403d-884a-09279027a7ab"
     data-name="Ellipse 192"
     cx="288.84323"
     cy="273.2301"
     rx="0.98922002"
     ry="1.81344"
     fill="#a0616a" />
  <path
     d="m 301.2589,310.86459 c -0.66623,0.49977 -1.35647,0.9916 -2.05447,1.45172 -0.2142,0.14278 -0.42027,0.27763 -0.63447,0.40458 -0.76965,0.49183 -1.54705,0.95194 -2.34033,1.38824 -0.31724,0.1745 -0.63447,0.3411 -0.95171,0.50771 v -8.742 c 0,0 1.26894,1.01542 3.292,2.70507 0.25371,0.2142 0.51556,0.43634 0.79328,0.67431 0.58686,0.49188 1.22173,1.03131 1.8957,1.61037 z"
     fill="#8d99ae"
     id="path3989" />
  <path
     d="m 315.8397,262.45864 a 44.19305,44.19305 0 1 0 -76.36916,41.98041 c 0.39664,0.49977 0.80916,0.99954 1.22943,1.48343 0.0318,0.0317 0.0554,0.0635 0.0872,0.0952 a 42.94478,42.94478 0 0 0 3.29243,3.39527 c 0.30135,0.27763 0.61859,0.5632 0.93582,0.83293 0.60309,0.53943 1.22168,1.05508 1.86429,1.54691 a 43.45061,43.45061 0 0 0 3.91876,2.75266 l 0.0476,0.0238 c 0.88043,0.54737 1.77675,1.055 2.68933,1.539 l 0.37263,0.19038 c 0.8568,0.44424 1.72949,0.86465 2.6258,1.25335 0.18244,0.0794 0.38076,0.15867 0.5632,0.238 0.0159,0.008 0.024,0.008 0.0399,0.0158 a 42.929,42.929 0 0 0 5.56885,1.88007 44.21134,44.21134 0 0 0 11.39915,1.49137 c 1.40412,0 2.79236,-0.0634 4.16472,-0.19832 a 44.03355,44.03355 0 0 0 9.2339,-1.86419 c 0.008,0 0.0159,-0.008 0.0236,-0.008 a 43.31709,43.31709 0 0 0 5.54522,-2.19741 c 0.008,-0.008 0.024,-0.008 0.0318,-0.0158 0.40439,-0.19038 0.79328,-0.39664 1.18992,-0.595 l 0.19057,-0.0952 c 0.31724,-0.1666 0.63447,-0.33321 0.95171,-0.50771 0.79328,-0.43629 1.57068,-0.89641 2.34033,-1.38824 0.2142,-0.127 0.42027,-0.2618 0.63447,-0.40458 0.698,-0.46012 1.38824,-0.952 2.05447,-1.45172 0.11931,-0.0872 0.246,-0.1745 0.36527,-0.26969 a 44.17946,44.17946 0 0 0 15.00881,-49.72284 z m -16.46871,47.79518 c -0.26185,0.20626 -0.53144,0.40458 -0.801,0.587 -0.26184,0.19832 -0.52369,0.3887 -0.79328,0.56319 -0.23008,0.16661 -0.46016,0.32528 -0.69838,0.476 -0.19832,0.13485 -0.39664,0.2618 -0.595,0.3887 q -0.98715,0.61878 -1.9987,1.18992 l -0.21459,0.119 c -0.30135,0.16656 -0.6027,0.32523 -0.90406,0.48389 -0.0399,0.0238 -0.0875,0.0397 -0.127,0.0635 l -0.0476,0.0238 c -0.38076,0.19832 -0.76927,0.3887 -1.15816,0.57119 a 38.89278,38.89278 0 0 1 -4.62489,1.87213 c -0.20607,0.0714 -0.41252,0.14279 -0.61859,0.20626 a 41.612,41.612 0 0 1 -8.742,1.77694 c -1.30109,0.119 -2.61806,0.18244 -3.94277,0.18244 a 41.21276,41.21276 0 0 1 -10.78057,-1.412 39.18138,39.18138 0 0 1 -5.29112,-1.79282 c -0.18244,-0.0714 -0.36488,-0.15073 -0.53957,-0.22215 -0.0949,-0.0396 -0.18244,-0.0793 -0.27772,-0.1269 -0.74564,-0.32527 -1.48314,-0.68221 -2.20515,-1.05508 l -0.349,-0.18244 c -0.88043,-0.46011 -1.74537,-0.95194 -2.5863,-1.47549 -0.3091,-0.19043 -0.61859,-0.38875 -0.91994,-0.595 -0.95209,-0.62672 -1.88017,-1.301 -2.78462,-2.007 -0.61084,-0.46012 -1.19767,-0.952 -1.769,-1.45966 -0.30135,-0.25381 -0.595,-0.53148 -0.88043,-0.79328 a 40.36294,40.36294 0 0 1 -3.189,-3.3 c -0.33311,-0.38076 -0.65848,-0.76156 -0.968,-1.1582 a 3.01537,3.01537 0 0 1 -0.19832,-0.24592 41.77342,41.77342 0 1 1 58.00479,7.322 z"
     fill="#3f3d56"
     id="path3991" />
  <circle
     cx="274.35452"
     cy="432.5329"
     r="17.314541"
     fill="#2f2e41"
     id="circle3993" />
  <ellipse
     cx="-114.80424"
     cy="478.31372"
     rx="7.1646399"
     ry="5.3734798"
     transform="rotate(-45)"
     fill="#2f2e41"
     id="ellipse3995" />
  <ellipse
     cx="-269.2587"
     cy="425.81387"
     rx="5.3734798"
     ry="7.1646399"
     transform="rotate(-66.86956)"
     fill="#2f2e41"
     id="ellipse3997" />
  <path
     d="m 295.06535,466.11859 -2.04,-3.21 a 8.00714,8.00714 0 0 0 -14.64014,6.49 l 0.58008,2.08 0.66016,2.36 a 45.21049,45.21049 0 0 0 7.87988,-1.72 0.034,0.034 0 0 0 0.02,-0.01 42.14842,42.14842 0 0 0 5.55029,-2.2 c 0.01,-0.01 0.0195,-0.01 0.0298,-0.02 0.3999,-0.19 0.79,-0.39 1.18994,-0.59 a 1.735,1.735 0 0 0 0.18994,-0.1 c 0.31982,-0.16 0.64014,-0.33 0.95019,-0.5 q 0.47974,-0.25506 0.92969,-0.54 z"
     fill="#cacaca"
     id="path3999" />
  <circle
     cx="274.90366"
     cy="436.66629"
     r="14.69467"
     fill="#ffb6b6"
     id="circle4001" />
  <path
     d="m 296.12541,465.48859 a 31.78536,31.78536 0 0 0 -5.97022,-7.24 8.72893,8.72893 0 0 0 -5.81982,-2.22 h -20.7002 a 8.7244,8.7244 0 0 0 -8.71,9.28 8.93713,8.93713 0 0 0 0.36035,1.98 9.39745,9.39745 0 0 0 0.54981,1.36 l 1.02,2.04 c 0.0801,0.03 0.16015,0.07 0.23974,0.1 0.02,0.01 0.0303,0.01 0.04,0.02 0.41992,0.17 0.84033,0.34 1.27,0.5 a 41.34909,41.34909 0 0 0 4.30029,1.38 43.32755,43.32755 0 0 0 7.15967,1.29 c 1.41016,0.13 2.82031,0.2 4.24024,0.2 1.41015,0 2.79,-0.07 4.16992,-0.2 0.45019,-0.04 0.8999,-0.09 1.3501,-0.14 a 45.21049,45.21049 0 0 0 7.87988,-1.72 0.034,0.034 0 0 0 0.02,-0.01 42.14842,42.14842 0 0 0 5.55029,-2.2 c 0.01,-0.01 0.0195,-0.01 0.0298,-0.02 0.3999,-0.19 0.79,-0.39 1.18994,-0.59 a 1.735,1.735 0 0 0 0.18994,-0.1 c 0.31982,-0.16 0.64014,-0.33 0.95019,-0.5 q 0.47974,-0.25506 0.92969,-0.54 c 0.32031,-0.17 0.62012,-0.36 0.93018,-0.55 -0.37975,-0.75 -0.76988,-1.45 -1.16978,-2.12 z"
     fill="#cacaca"
     id="path4003" />
  <path
     d="m 267.38517,458.70859 a 8.00082,8.00082 0 0 0 -10.61963,3.81995 l -1.84033,2.78 -0.87988,1.33 -1.33985,2.02 c 0.27979,0.15 0.54981,0.30005 0.83008,0.45 l 0.36963,0.19 c 0.86035,0.44 1.73,0.86 2.63037,1.25 0.0996,0.05 0.21,0.09 0.31983,0.14 0.0801,0.03 0.16015,0.07 0.23974,0.1 0.02,0.01 0.0303,0.01 0.04,0.02 0.41992,0.17 0.84033,0.34 1.27,0.5 a 41.34909,41.34909 0 0 0 4.30029,1.38 43.32755,43.32755 0 0 0 7.15967,1.29 l 0.7002,-2.37 0.68017,-2.26 a 8.01285,8.01285 0 0 0 -3.86029,-10.63995 z"
     fill="#cacaca"
     id="path4005" />
  <path
     d="m 259.46306,427.42339 a 19.98594,19.98594 0 0 0 11.42181,3.52983 12.24752,12.24752 0 0 1 -4.85431,1.9971 40.3,40.3 0 0 0 16.46138,0.0925 10.65382,10.65382 0 0 0 3.446,-1.18356 4.361,4.361 0 0 0 2.127,-2.8447 c 0.36116,-2.06322 -1.24653,-3.9377 -2.91727,-5.201 a 21.519,21.519 0 0 0 -18.08306,-3.61349 9.90262,9.90262 0 0 0 -5.35555,3.02653 4.87853,4.87853 0 0 0 -0.45065,5.79358 z"
     fill="#2f2e41"
     id="path4007" />
  <path
     d="m 315.84513,415.45859 a 44.19385,44.19385 0 1 0 -76.36963,41.98 c 0.38965,0.5 0.81006,1 1.23,1.48 a 0.82521,0.82521 0 0 0 0.0801,0.1 42.15388,42.15388 0 0 0 3.29981,3.38995 c 0.2998,0.28 0.60986,0.57 0.93017,0.84 0.59961,0.54 1.21973,1.05 1.86963,1.54 0.25,0.2 0.5,0.4 0.76026,0.59 1.00976,0.77 2.06982,1.48 3.1499,2.17 a 0.07523,0.07523 0 0 1 0.0498,0.02 c 0.31006,0.19 0.63037,0.38 0.9502,0.56 0.2998,0.18 0.60986,0.36 0.91015,0.53 0.27979,0.15 0.54981,0.30005 0.83008,0.45 l 0.36963,0.19 c 0.86035,0.44 1.73,0.86 2.63037,1.25 0.0996,0.05 0.21,0.09 0.31983,0.14 0.0801,0.03 0.16015,0.07 0.23974,0.1 0.02,0.01 0.0303,0.01 0.04,0.02 0.41992,0.17 0.84033,0.34 1.27,0.5 a 41.34909,41.34909 0 0 0 4.30029,1.38 43.32755,43.32755 0 0 0 7.15967,1.29 c 1.41016,0.13 2.82031,0.2 4.24024,0.2 1.41015,0 2.79,-0.07 4.16992,-0.2 0.45019,-0.04 0.8999,-0.09 1.3501,-0.14 a 45.21049,45.21049 0 0 0 7.87988,-1.72 0.034,0.034 0 0 0 0.02,-0.01 42.14842,42.14842 0 0 0 5.55029,-2.2 c 0.01,-0.01 0.0195,-0.01 0.0298,-0.02 0.3999,-0.19 0.79,-0.39 1.18994,-0.59 a 1.735,1.735 0 0 0 0.18994,-0.1 c 0.31982,-0.16 0.64014,-0.33 0.95019,-0.5 q 0.47974,-0.25506 0.92969,-0.54 c 0.32031,-0.17 0.62012,-0.36 0.93018,-0.55 q 0.24023,-0.15 0.48,-0.3 c 0.22021,-0.13 0.41992,-0.26 0.64013,-0.41 0.29981,-0.19 0.6001,-0.4 0.88965,-0.61 0.39014,-0.27 0.78028,-0.55 1.16016,-0.84 a 4.34045,4.34045 0 0 0 0.37012,-0.27 44.22136,44.22136 0 0 0 15.00976,-49.72 z m -16.46972,47.79 c -0.26026,0.21 -0.53028,0.41 -0.79981,0.59 -0.27051,0.2 -0.53027,0.39 -0.80029,0.57 -0.23,0.16 -0.46,0.32 -0.69971,0.47 a 0.43763,0.43763 0 0 1 -0.0703,0.05 c -0.16992,0.12 -0.3501,0.23 -0.52,0.34 -0.12012,0.0699 -0.23975,0.15 -0.35986,0.22 -0.3501,0.22 -0.7002,0.43 -1.06006,0.63 -0.18994,0.12 -0.39014,0.23 -0.58008,0.34 -0.0698,0.04 -0.14014,0.08 -0.21,0.12 -0.31006,0.17 -0.60987,0.32 -0.91016,0.48 -0.0396,0.03 -0.0898,0.04 -0.11963,0.07 a 0.07766,0.07766 0 0 0 -0.0503,0.02 c -0.37988,0.2 -0.77,0.39 -1.15967,0.57 a 38.6113,38.6113 0 0 1 -4.63037,1.87 c -0.19971,0.07 -0.40967,0.15 -0.60986,0.21 a 41.84782,41.84782 0 0 1 -7.83008,1.68 c -0.29981,0.04 -0.60986,0.07 -0.91992,0.1 -1.29981,0.12 -2.60987,0.18 -3.93994,0.18 -1.18018,0 -2.37012,-0.05 -3.54,-0.15 a 41.2311,41.2311 0 0 1 -7.23975,-1.26 38.302,38.302 0 0 1 -5.29,-1.8 c -0.0903,-0.04 -0.18017,-0.07 -0.27,-0.11 -0.1001,-0.04 -0.18017,-0.07 -0.27,-0.11 -0.10009,-0.04 -0.18017,-0.08 -0.28027,-0.13 -0.6499,-0.28 -1.29981,-0.59 -1.92969,-0.91 -0.0903,-0.05 -0.18017,-0.09 -0.27,-0.14 l -0.3501,-0.18 c -0.21,-0.11 -0.41992,-0.22 -0.62011,-0.33 -0.66992,-0.36 -1.33008,-0.75 -1.96973,-1.15 -0.24023,-0.15 -0.5,-0.31 -0.74023,-0.47 l -0.18018,-0.12 c -0.56006,-0.38 -1.11963,-0.76 -1.66992,-1.17 -0.37012,-0.28 -0.75,-0.55 -1.10986,-0.84 -0.60987,-0.46 -1.2002,-0.95 -1.77,-1.46 -0.3003,-0.25 -0.6001,-0.53 -0.87989,-0.79 a 39.67486,39.67486 0 0 1 -3.18994,-3.3 c -0.33008,-0.37994 -0.66015,-0.76 -0.97021,-1.16 -0.0698,-0.08 -0.12989,-0.16 -0.2002,-0.25 a 41.77848,41.77848 0 1 1 58.01026,7.32 z"
     fill="#3f3d56"
     id="path4009" />
  <path
     d="m 348.03912,199.54582 a 103.86271,103.86271 0 1 0 5.88861,153.38883 l 127.40025,107.4997 a 9.571,9.571 0 0 0 12.35857,-14.61776 l -0.0141,-0.0119 L 366.27217,338.30496 A 103.86855,103.86855 0 0 0 348.03912,199.54582 Z m -8.213,128.40762 a 77.81462,77.81462 0 1 1 -9.28981,-109.65368 v 0 a 77.81462,77.81462 0 0 1 9.28981,109.65368 z"
     fill="#3f3d56"
     id="path4011" />
  <path
     d="M 230.17241,337.24328 A 77.81885,77.81885 0 0 1 216.96794,232.63499 q -2.23174,2.24755 -4.315,4.70769 a 77.81464,77.81464 0 1 0 118.94351,100.36391 q 2.07849,-2.46329 3.91466,-5.04544 a 77.81872,77.81872 0 0 1 -105.3387,4.58213 z"
     opacity="0.3"
     style="isolation:isolate"
     id="path4013" />
  <path
     d="m 604.87774,464.45334 a 10.74269,10.74269 0 0 0 -3.06875,-16.18426 l -23.222,-95.04913 -16.94052,5.40781 25.07572,94.40044 a 10.8009,10.8009 0 0 0 18.15552,11.42514 z"
     fill="#ffb6b6"
     id="path4015" />
  <polygon
     points="376.902,359.57 394.452,329 409.082,329.839 410.082,329.899 410.102,330.12 410.332,332.17 413.332,359.149 413.402,359.8 415.682,380.399 403.302,391.079 385.982,406.01 378.332,366.87 377.532,362.8 "
     fill="#3f3d56"
     id="polygon4017"
     transform="translate(177.1931,23.256594)" />
  <polygon
     points="322.504,646.073 316.671,598.785 334.766,598.786 334.763,646.074 "
     fill="#ffb6b6"
     id="polygon4019"
     transform="translate(177.1931,23.256594)" />
  <path
     d="m 515.08316,681.21443 -39.53077,-10e-4 v -0.5 a 15.38731,15.38731 0 0 1 15.38648,-15.38623 h 10e-4 l 24.144,0.001 z"
     fill="#2f2e41"
     id="path4021" />
  <polygon
     points="450.504,647.073 444.671,599.785 462.766,599.786 462.763,647.074 "
     fill="#ffb6b6"
     id="polygon4023"
     transform="translate(177.1931,23.256594)" />
  <path
     d="m 643.08316,682.21443 -39.53077,-10e-4 v -0.5 a 15.38731,15.38731 0 0 1 15.38648,-15.38623 h 0.001 l 24.144,0.001 z"
     fill="#2f2e41"
     id="path4025" />
  <path
     d="m 649.75515,651.50612 -33,5 -48.00977,-162.48 -50.99023,163.48 -37,-5 48,-190 v -15 l 6.5,-22.5 -0.68018,-6.09 -4.73,-42.59 -2.0498,-18.47 -0.13286,-1.19314 a 4.05551,4.05551 0 0 1 3.19291,-4.41685 v 0 l 15.3999,-3.24 h 25.16994 l 14.8501,4.09 1.02,0.28 0.46,0.13 -0.23,1.92 -3.48,29.18 -0.18994,1.6 -3.36011,28.13 -0.74,6.17 c 29,21 30,42 30,42 z"
     fill="#2f2e41"
     id="path4027" />
  <circle
     cx="555.79846"
     cy="311.79352"
     r="24.561029"
     fill="#ffb6b6"
     id="circle4029" />
  <rect
     x="473.88986"
     y="486.77487"
     width="49.000137"
     height="7.0000196"
     transform="rotate(-7.4505025)"
     fill="#3f3d56"
     id="rect4031"
     style="stroke-width:1" />
  <path
     d="m 467.83754,423.30849 a 10.52714,10.52714 0 0 1 1.31644,1.00712 l 48.05634,-12.25059 3.2784,-11.59339 18.14314,2.66086 -3.8092,21.08784 a 8,8 0 0 1 -7.03475,6.53393 l -56.11128,5.90907 a 10.4971,10.4971 0 1 1 -3.83909,-13.35484 z"
     fill="#ffb6b6"
     id="path4033" />
  <path
     d="m 541.75515,358.50612 -8.5,-6.5 c -2.29816,-0.87172 -5.44731,1.605 -6,4 l -12,49 25,18 3.5,-5.5 z"
     fill="#3f3d56"
     id="path4035" />
  <g
     opacity="0.2"
     id="g4039"
     transform="translate(177.1931,23.256594)">
    <path
       d="m 717.97011,479.46849 a 67.67916,67.67916 0 0 1 -6.48,2.2 c -0.7,0.21 -1.41992,0.41 -2.12988,0.6 a 66.01864,66.01864 0 0 1 -14.34034,2.32 45.13975,45.13975 0 0 1 -6.25976,-0.17 35.24268,35.24268 0 0 1 -6.58985,-1.3 c -0.0703,-0.02 -0.15039,-0.04 -0.22021,-0.06 a 28.90627,28.90627 0 0 1 -11.9502,-6.79 23.56071,23.56071 0 0 1 -2.10986,-2.35 21.23882,21.23882 0 0 1 -4.56006,-16.53 14.15553,14.15553 0 0 1 0.34033,-1.57 25.10846,25.10846 0 0 1 1.48975,-4.1 c 0.27,-0.62 0.57031,-1.23 0.89014,-1.82995 l 11.2998,-3.82 h 21.52 l 14.8501,4.09 1,0.06 0.02,0.22 0.46,0.13 -0.23,1.92 z"
       transform="translate(-304.63804,-120.31901)"
       id="path4037" />
  </g>
  <path
     d="m 536.97806,291.45953 c -4.59329,-0.563 -9.634,-0.16485 -13.21412,2.76739 -3.58012,2.93224 -4.73557,9.0278 -1.34592,12.17828 3.00083,2.7891 7.6933,2.13322 11.71262,2.92632 a 15.85418,15.85418 0 0 1 12.38363,15.15657 c -0.0598,10.17413 -9.8241,17.87895 -11.578,27.90093 -1.197,6.83982 1.68772,14.03819 6.675,18.86966 4.98728,4.83147 11.84324,7.44255 18.7509,8.1498 6.90766,0.70725 13.8926,-0.373 20.60576,-2.14766 6.74127,-1.78215 13.3778,-4.31055 19.03424,-8.388 5.65644,-4.07745 10.2931,-9.82559 12.10927,-16.55777 1.81617,-6.73218 0.51227,-14.45089 -4.16774,-19.61986 -5.359,-5.919 -14.27435,-7.95446 -18.90988,-14.45565 -5.1964,-7.28778 -3.27353,-17.66625 -7.47921,-25.5673 -2.80791,-5.27514 -8.12457,-8.87315 -13.79191,-10.76858 -5.66734,-1.89543 -11.719,-2.26953 -17.69211,-2.4531 -3.13957,-0.0965 -6.37528,-0.12863 -9.30036,1.016 -2.92508,1.14463 -5.49633,3.75316 -5.648,6.89055 -0.15167,3.13739 1.85583,4.10242 1.85583,4.10242 z"
     fill="#2f2e41"
     id="path4041" />
  <path
     d="m 766.91706,682.61859 h -381 a 1,1 0 0 1 0,-2 h 381 a 1,1 0 0 1 0,2 z"
     fill="#cacaca"
     id="path4043" />
</svg>
